<svg width="97" height="90" viewBox="0 0 97 90" fill="none" xmlns="http://www.w3.org/2000/svg">
<g opacity="0.16" style="mix-blend-mode:plus-darker">
<path d="M10.3077 57.8972C10.9127 53.9993 14.2685 51.124 18.2131 51.124H78.8234C82.6811 51.124 85.9894 53.8771 86.6903 57.6706L90.9166 80.5464C91.8251 85.4637 88.0502 89.9999 83.0498 89.9999H14.663C9.75566 89.9999 6.00504 85.6223 6.75761 80.773L10.3077 57.8972Z" fill="#464646"/>
</g>
<path d="M81.0014 69.2734H16.0889L14.0352 74.7261H83.0464L81.0014 69.2734Z" fill="#C8E6EB"/>
<path d="M77.8602 36.4883H19.2443L14.0352 50.3182H83.0464L77.8602 36.4883Z" fill="#C8E6EB"/>
<path d="M81.0018 50.3232H16.0894V81.9183H81.0018V50.3232Z" fill="#A56941"/>
<path d="M80.2512 0H16.7419L13.9463 6.03544H83.0468L80.2512 0Z" fill="#C8E6EB"/>
<path d="M77.7531 8.74512H19.1997V34.2046H77.7531V8.74512Z" fill="#965028"/>
<path d="M67.2005 19.0327H29.7536L23.48 28.4739H73.4907L67.2005 19.0327Z" fill="#844120"/>
<path d="M67.2007 19.0326L68.639 7.59326L77.7537 8.74461L73.4909 28.4738L67.2007 19.0326Z" fill="#77381D"/>
<path d="M29.7918 19.0326L28.3534 7.59326L19.2388 8.74461L23.5015 28.4738L29.7918 19.0326Z" fill="#77381D"/>
<path d="M14.0352 6.04784L19.2126 34.1547L19.2131 34.2044H77.7538H77.7967L83.0469 6.03271L14.0352 6.04784ZM23.4797 28.474L20.2009 11.7773H76.4931L73.4905 28.474H23.4797Z" fill="#A5C8CD"/>
<path d="M43.2363 13.059V5.06348H53.8542V13.059C53.8542 14.5398 52.6541 15.7399 51.1733 15.7399H45.9173C44.4365 15.7399 43.2363 14.5393 43.2363 13.059Z" fill="#87AFB9"/>
<path d="M43.2363 11.1957V3.2002H53.8542V11.1957C53.8542 12.6765 52.6541 13.8767 51.1733 13.8767H45.9173C44.4365 13.8767 43.2363 12.6765 43.2363 11.1957Z" fill="#C8E6EB"/>
<path d="M48.5457 11.9187C47.6305 11.9187 46.8892 11.1768 46.8892 10.2622V7.4148C46.8892 6.49967 47.631 5.7583 48.5457 5.7583C49.4608 5.7583 50.2022 6.50016 50.2022 7.4148V10.2622C50.2022 11.1773 49.4603 11.9187 48.5457 11.9187Z" fill="#6C9BAA"/>
<path d="M48.5457 11.9187C47.6305 11.9187 46.8892 11.1768 46.8892 10.2622V7.4148C46.8892 6.49967 47.631 5.7583 48.5457 5.7583C49.4608 5.7583 50.2022 6.50016 50.2022 7.4148V10.2622C50.2022 11.1773 49.4603 11.9187 48.5457 11.9187Z" fill="#A5C8CD"/>
<path d="M48.5457 5.7583C47.6305 5.7583 46.8892 6.50016 46.8892 7.4148V9.43003C46.8892 8.5149 47.631 7.77353 48.5457 7.77353C49.4608 7.77353 50.2022 8.51539 50.2022 9.43003V7.4148C50.2022 6.49967 49.4603 5.7583 48.5457 5.7583Z" fill="#55879B"/>
<path d="M30.6859 37.1029H23.1794C22.2013 37.1029 21.4087 36.3103 21.4087 35.3322C21.4087 34.3541 22.2013 33.5615 23.1794 33.5615H30.6859C31.664 33.5615 32.4566 34.3541 32.4566 35.3322C32.4566 36.3098 31.664 37.1029 30.6859 37.1029Z" fill="#8CB4B5"/>
<path d="M73.9827 37.1029H66.4768C65.4987 37.1029 64.7061 36.3103 64.7061 35.3322C64.7061 34.3541 65.4987 33.5615 66.4768 33.5615H73.9827C74.9608 33.5615 75.7535 34.3541 75.7535 35.3322C75.7535 36.3098 74.9603 37.1029 73.9827 37.1029Z" fill="#8CB4B5"/>
<path d="M81.0018 50.3232H16.0894V59.7322H81.0018V50.3232Z" fill="#965028"/>
<path d="M48.7524 73.8561V56.2979H48.3381V73.8561H48.7524Z" fill="#965028"/>
<path d="M37.2876 73.8561V56.2979H36.8732V73.8561H37.2876Z" fill="#965028"/>
<path d="M25.8223 73.8561L25.8223 56.2979H25.4079L25.4079 73.8561H25.8223Z" fill="#965028"/>
<path d="M60.2183 73.8561V56.2979H59.8039V73.8561H60.2183Z" fill="#965028"/>
<path d="M71.6831 73.8561V56.2979H71.2687V73.8561H71.6831Z" fill="#965028"/>
<path d="M83.0508 50.3184H14.04V57.511H83.0508V50.3184Z" fill="#A5C8CD"/>
<path d="M83.0469 74.7256H14.0352V81.9182H83.0469V74.7256Z" fill="#A5C8CD"/>
<path d="M83.0466 81.9189H14.0354L13.3828 84.4003H83.6991L83.0466 81.9189Z" fill="#E4ECED"/>
<path d="M81.2813 72.9868H15.7114V74.7258H81.2813V72.9868Z" fill="#C8E6EB"/>
<path d="M73.4395 39.3628H23.2711L20.2012 47.5121H76.4934L73.4395 39.3628Z" fill="#87AFB9"/>
<path d="M43.2363 62.5106V52.145H53.8542V62.5106C53.8542 63.9914 52.6541 65.1915 51.1733 65.1915H45.9173C44.4365 65.1915 43.2363 63.9914 43.2363 62.5106Z" fill="#965028"/>
<path d="M43.2363 60.7005V50.3354H53.8542V60.701C53.8542 62.1818 52.6541 63.382 51.1733 63.382H45.9173C44.4365 63.3815 43.2363 62.1813 43.2363 60.7005Z" fill="#87AFB9"/>
<path d="M53.8542 50.0513H43.2363V51.0967H53.8542V50.0513Z" fill="#C8E6EB"/>
<path d="M48.5459 59.865C47.8855 59.865 47.3496 59.3296 47.3496 58.6687V54.8999C47.3496 54.2395 47.885 53.7036 48.5459 53.7036C49.2062 53.7036 49.7421 54.239 49.7421 54.8999V58.6687C49.7416 59.3291 49.2062 59.865 48.5459 59.865Z" fill="#B4D7DC"/>
<path d="M48.5459 60.7971C47.8855 60.7971 47.3496 60.2617 47.3496 59.6008V55.832C47.3496 55.1716 47.885 54.6357 48.5459 54.6357C49.2062 54.6357 49.7421 55.1711 49.7421 55.832V59.6008C49.7416 60.2617 49.2062 60.7971 48.5459 60.7971Z" fill="#6C9BAA"/>
<path d="M48.5459 59.8647C47.8855 59.8647 47.3496 59.3293 47.3496 58.6685V59.6002C47.3496 60.2605 47.885 60.7964 48.5459 60.7964C49.2067 60.7964 49.7421 60.261 49.7421 59.6002V58.6685C49.7416 59.3288 49.2062 59.8647 48.5459 59.8647Z" fill="#55879B"/>
<mask id="mask0_519_3417" style="mask-type:luminance" maskUnits="userSpaceOnUse" x="0" y="24" width="97" height="24">
<path d="M96.6944 24.7939H0L20.2011 47.512H76.4933L96.6944 24.7939Z" fill="white"/>
</mask>
<g mask="url(#mask0_519_3417)">
<path d="M33.8534 45.6584C33.8534 44.0819 32.9446 42.7183 31.6225 42.0613L31.0895 41.6431H29.6375V41.6479C27.5129 41.7524 25.8218 43.508 25.8218 45.6584C25.8218 47.8088 27.5124 49.5649 29.6375 49.6688V49.6737H31.0895L31.6225 49.2554C32.9446 48.5985 33.8534 47.2348 33.8534 45.6584Z" fill="#FFA50A"/>
<path d="M33.9284 48.4978C35.4967 46.9295 35.4967 44.3869 33.9284 42.8186C32.3602 41.2504 29.8175 41.2504 28.2493 42.8186C26.681 44.3869 26.681 46.9295 28.2493 48.4978C29.8175 50.066 32.3602 50.066 33.9284 48.4978Z" fill="#FFD23C"/>
<path d="M31.0892 42.6387C30.9374 42.6387 30.7885 42.6499 30.6431 42.6719C32.099 42.8876 33.2166 44.1424 33.2166 45.6583C33.2166 47.1743 32.0995 48.4291 30.6431 48.6448C30.7885 48.6663 30.9379 48.678 31.0892 48.678C32.7569 48.678 34.1088 47.3261 34.1088 45.6583C34.1093 43.9906 32.7574 42.6387 31.0892 42.6387Z" fill="#FFA50A"/>
</g>
<mask id="mask1_519_3417" style="mask-type:luminance" maskUnits="userSpaceOnUse" x="0" y="24" width="97" height="24">
<path d="M96.6944 24.7939H0L20.2011 47.512H76.4933L96.6944 24.7939Z" fill="white"/>
</mask>
<g mask="url(#mask1_519_3417)">
<path d="M58.5521 42.3312C58.5521 40.7548 57.6434 39.3911 56.3212 38.7342L55.7882 38.3159H54.3362V38.3208C52.2112 38.4252 50.5205 40.1808 50.5205 42.3312C50.5205 44.4817 52.2112 46.2377 54.3362 46.3417V46.3466H55.7882L56.3212 45.9283C57.6429 45.2714 58.5521 43.9082 58.5521 42.3312Z" fill="#FFA50A"/>
<path d="M59.7016 43.2563C60.213 41.0981 58.8781 38.9339 56.7198 38.4225C54.5616 37.911 52.3974 39.246 51.886 41.4042C51.3746 43.5624 52.7095 45.7266 54.8678 46.2381C57.026 46.7495 59.1902 45.4145 59.7016 43.2563Z" fill="#FFD23C"/>
<path d="M55.7879 39.312C55.6361 39.312 55.4872 39.3232 55.3418 39.3452C56.7977 39.5609 57.9154 40.8157 57.9154 42.3317C57.9154 43.8476 56.7982 45.1024 55.3418 45.3182C55.4872 45.3396 55.6366 45.3514 55.7879 45.3514C57.4556 45.3514 58.8076 43.9994 58.8076 42.3317C58.8076 40.664 57.4556 39.312 55.7879 39.312Z" fill="#FFA50A"/>
</g>
<mask id="mask2_519_3417" style="mask-type:luminance" maskUnits="userSpaceOnUse" x="0" y="24" width="97" height="24">
<path d="M96.6944 24.7939H0L20.2011 47.512H76.4933L96.6944 24.7939Z" fill="white"/>
</mask>
<g mask="url(#mask2_519_3417)">
<path d="M67.747 39.7961C67.747 38.2196 66.8382 36.856 65.516 36.1985L64.983 35.7803H63.531V35.7852C61.406 35.8896 59.7153 37.6452 59.7153 39.7956C59.7153 41.946 61.406 43.7021 63.531 43.806V43.8109H64.983L65.516 43.3927C66.8382 42.7362 67.747 41.3725 67.747 39.7961Z" fill="#FFA50A"/>
<path d="M68.9009 40.6575C69.3778 38.4915 68.0085 36.3491 65.8425 35.8723C63.6765 35.3954 61.5341 36.7647 61.0572 38.9307C60.5804 41.0967 61.9497 43.2391 64.1157 43.7159C66.2817 44.1928 68.4241 42.8235 68.9009 40.6575Z" fill="#FFD23C"/>
<path d="M64.9827 36.7769C64.8309 36.7769 64.6821 36.7881 64.5366 36.81C65.9925 37.0258 67.1102 38.2806 67.1102 39.7965C67.1102 41.3125 65.993 42.5673 64.5366 42.783C64.6821 42.8045 64.8314 42.8162 64.9827 42.8162C66.6504 42.8162 68.0024 41.4643 68.0024 39.7965C68.0024 38.1288 66.6504 36.7769 64.9827 36.7769Z" fill="#FFA50A"/>
</g>
<mask id="mask3_519_3417" style="mask-type:luminance" maskUnits="userSpaceOnUse" x="0" y="24" width="97" height="24">
<path d="M96.6944 24.7939H0L20.2011 47.512H76.4933L96.6944 24.7939Z" fill="white"/>
</mask>
<g mask="url(#mask3_519_3417)">
<path d="M54.2191 43.0993C54.2191 41.5229 53.3104 40.1592 51.9882 39.5023L51.4552 39.084H50.0032V39.0889C47.8782 39.1933 46.1875 40.9489 46.1875 43.0993C46.1875 45.2497 47.8782 47.0058 50.0032 47.1098V47.1146H51.4552L51.9882 46.6964C53.3104 46.0394 54.2191 44.6758 54.2191 43.0993Z" fill="#FFA50A"/>
<path d="M53.0006 46.8085C55.0479 45.9555 56.0161 43.6043 55.1631 41.557C54.3101 39.5097 51.9589 38.5415 49.9116 39.3945C47.8643 40.2475 46.8961 42.5987 47.7491 44.646C48.6021 46.6933 50.9532 47.6615 53.0006 46.8085Z" fill="#FFD23C"/>
<path d="M51.4549 40.0796C51.3031 40.0796 51.1542 40.0913 51.0088 40.1128C52.4652 40.3285 53.5824 41.5833 53.5824 43.0993C53.5824 44.6152 52.4652 45.87 51.0088 46.0857C51.1542 46.1072 51.3036 46.1189 51.4549 46.1189C53.1226 46.1189 54.4746 44.767 54.4746 43.0993C54.4746 41.4315 53.1226 40.0796 51.4549 40.0796Z" fill="#FFA50A"/>
</g>
<mask id="mask4_519_3417" style="mask-type:luminance" maskUnits="userSpaceOnUse" x="0" y="24" width="97" height="24">
<path d="M96.6944 24.7939H0L20.2011 47.512H76.4933L96.6944 24.7939Z" fill="white"/>
</mask>
<g mask="url(#mask4_519_3417)">
<path d="M62.2899 42.402C62.2899 40.8256 61.3811 39.4619 60.059 38.805L59.526 38.3867H58.074V38.3916C55.949 38.496 54.2583 40.2516 54.2583 42.402C54.2583 44.553 55.949 46.3085 58.074 46.4125V46.4174H59.526L60.059 45.9991C61.3811 45.3422 62.2899 43.9785 62.2899 42.402Z" fill="#FFA50A"/>
<path d="M62.3644 45.2419C63.9327 43.6737 63.9327 41.131 62.3644 39.5628C60.7962 37.9945 58.2535 37.9945 56.6853 39.5628C55.117 41.131 55.117 43.6737 56.6853 45.2419C58.2535 46.8102 60.7962 46.8102 62.3644 45.2419Z" fill="#FFD23C"/>
<path d="M59.5262 39.3828C59.3744 39.3828 59.2255 39.394 59.0801 39.416C60.536 39.6317 61.6537 40.8865 61.6537 42.4025C61.6537 43.9184 60.536 45.1737 59.0801 45.389C59.2255 45.4104 59.3749 45.4222 59.5262 45.4222C61.1939 45.4222 62.5458 44.0702 62.5458 42.4025C62.5463 40.7348 61.1939 39.3828 59.5262 39.3828Z" fill="#FFA50A"/>
</g>
<mask id="mask5_519_3417" style="mask-type:luminance" maskUnits="userSpaceOnUse" x="0" y="24" width="97" height="24">
<path d="M96.6944 24.7939H0L20.2011 47.512H76.4933L96.6944 24.7939Z" fill="white"/>
</mask>
<g mask="url(#mask5_519_3417)">
<path d="M74.6586 43.9533C74.6586 42.3769 73.7498 41.0132 72.4276 40.3563L71.8947 39.938H70.4427V39.9429C68.3176 40.0473 66.627 41.8029 66.627 43.9533C66.627 46.1042 68.3176 47.8598 70.4427 47.9638V47.9686H71.8947L72.4276 47.5504C73.7493 46.8934 74.6586 45.5298 74.6586 43.9533Z" fill="#FFA50A"/>
<path d="M71.8952 47.9691C74.1131 47.9691 75.911 46.1712 75.911 43.9533C75.911 41.7354 74.1131 39.9375 71.8952 39.9375C69.6773 39.9375 67.8794 41.7354 67.8794 43.9533C67.8794 46.1712 69.6773 47.9691 71.8952 47.9691Z" fill="#FFD23C"/>
<path d="M71.8948 40.9331C71.743 40.9331 71.5942 40.9448 71.4487 40.9663C72.9046 41.182 74.0223 42.4368 74.0223 43.9528C74.0223 45.4687 72.9046 46.7235 71.4487 46.9393C71.5942 46.9607 71.7435 46.9725 71.8948 46.9725C73.5625 46.9725 74.9145 45.6205 74.9145 43.9528C74.9145 42.2851 73.5625 40.9331 71.8948 40.9331Z" fill="#FFA50A"/>
</g>
<mask id="mask6_519_3417" style="mask-type:luminance" maskUnits="userSpaceOnUse" x="0" y="24" width="97" height="24">
<path d="M96.6944 24.7939H0L20.2011 47.512H76.4933L96.6944 24.7939Z" fill="white"/>
</mask>
<g mask="url(#mask6_519_3417)">
<path d="M41.9848 40.7492C41.9848 39.1728 41.076 37.8091 39.7538 37.1522L39.2208 36.7339H37.7688V36.7388C35.6443 36.8432 33.9531 38.5988 33.9531 40.7492C33.9531 42.8996 35.6438 44.6557 37.7688 44.7597V44.7645H39.2208L39.7538 44.3463C41.076 43.6893 41.9848 42.3262 41.9848 40.7492Z" fill="#FFA50A"/>
<path d="M39.2209 44.765C41.4388 44.765 43.2367 42.9671 43.2367 40.7492C43.2367 38.5313 41.4388 36.7334 39.2209 36.7334C37.003 36.7334 35.2051 38.5313 35.2051 40.7492C35.2051 42.9671 37.003 44.765 39.2209 44.765Z" fill="#FFD23C"/>
<path d="M39.2205 37.7295C39.0687 37.7295 38.9199 37.7407 38.7744 37.7627C40.2303 37.9784 41.348 39.2332 41.348 40.7492C41.348 42.2651 40.2308 43.5199 38.7744 43.7356C38.9199 43.7571 39.0692 43.7688 39.2205 43.7688C40.8882 43.7688 42.2402 42.4169 42.2402 40.7492C42.2402 39.0819 40.8882 37.7295 39.2205 37.7295Z" fill="#FFA50A"/>
</g>
<mask id="mask7_519_3417" style="mask-type:luminance" maskUnits="userSpaceOnUse" x="0" y="24" width="97" height="24">
<path d="M96.6944 24.7939H0L20.2011 47.512H76.4933L96.6944 24.7939Z" fill="white"/>
</mask>
<g mask="url(#mask7_519_3417)">
<path d="M66.935 45.4221C66.935 43.8456 66.0262 42.4819 64.704 41.825L64.171 41.4067H62.719V41.4116C60.5945 41.5161 58.9033 43.2716 58.9033 45.4221C58.9033 47.5725 60.594 49.3286 62.719 49.4325V49.4374H64.171L64.704 49.0191C66.0257 48.3622 66.935 46.9985 66.935 45.4221Z" fill="#FFA50A"/>
<path d="M68.0849 46.3457C68.5963 44.1875 67.2614 42.0233 65.1031 41.5118C62.9449 41.0004 60.7808 42.3354 60.2693 44.4936C59.7579 46.6518 61.0928 48.816 63.2511 49.3274C65.4093 49.8389 67.5735 48.5039 68.0849 46.3457Z" fill="#FFD23C"/>
<path d="M64.1707 42.4019C64.0189 42.4019 63.8701 42.4131 63.7246 42.435C65.1805 42.6508 66.2982 43.9056 66.2982 45.4215C66.2982 46.9375 65.1805 48.1923 63.7246 48.408C63.8701 48.4295 64.0194 48.4412 64.1707 48.4412C65.8384 48.4412 67.1904 47.0892 67.1904 45.4215C67.1904 43.7538 65.8384 42.4019 64.1707 42.4019Z" fill="#FFA50A"/>
</g>
<mask id="mask8_519_3417" style="mask-type:luminance" maskUnits="userSpaceOnUse" x="0" y="24" width="97" height="24">
<path d="M96.6944 24.7939H0L20.2011 47.512H76.4933L96.6944 24.7939Z" fill="white"/>
</mask>
<g mask="url(#mask8_519_3417)">
<path d="M75.4193 47.8024C75.4193 46.226 74.5105 44.8623 73.1884 44.2054L72.6554 43.7871H71.2034V43.792C69.0784 43.8964 67.3877 45.652 67.3877 47.8024C67.3877 49.9529 69.0784 51.7089 71.2034 51.8129V51.8178H72.6554L73.1884 51.3995C74.5105 50.7426 75.4193 49.3789 75.4193 47.8024Z" fill="#FFA50A"/>
<path d="M72.6555 51.8187C74.8733 51.8187 76.6713 50.0208 76.6713 47.8029C76.6713 45.585 74.8733 43.7871 72.6555 43.7871C70.4376 43.7871 68.6396 45.585 68.6396 47.8029C68.6396 50.0208 70.4376 51.8187 72.6555 51.8187Z" fill="#FFD23C"/>
<path d="M72.6556 44.7837C72.5038 44.7837 72.3549 44.7949 72.2095 44.8169C73.6654 45.0326 74.783 46.2874 74.783 47.8034C74.783 49.3193 73.6654 50.5741 72.2095 50.7898C72.3549 50.8113 72.5043 50.823 72.6556 50.823C74.3233 50.823 75.6752 49.4711 75.6752 47.8034C75.6752 46.1356 74.3233 44.7837 72.6556 44.7837Z" fill="#FFA50A"/>
</g>
<mask id="mask9_519_3417" style="mask-type:luminance" maskUnits="userSpaceOnUse" x="0" y="24" width="97" height="24">
<path d="M96.6944 24.7939H0L20.2011 47.512H76.4933L96.6944 24.7939Z" fill="white"/>
</mask>
<g mask="url(#mask9_519_3417)">
<path d="M59.9086 46.5583C59.9086 44.9818 58.9998 43.6182 57.6776 42.9612L57.1447 42.543H55.6927V42.5478C53.5676 42.6523 51.877 44.4079 51.877 46.5583C51.877 48.7087 53.5676 50.4648 55.6927 50.5687V50.5736H57.1447L57.6776 50.1554C58.9993 49.4984 59.9086 48.1347 59.9086 46.5583Z" fill="#FFA50A"/>
<path d="M57.1447 50.5736C59.3626 50.5736 61.1605 48.7757 61.1605 46.5578C61.1605 44.3399 59.3626 42.542 57.1447 42.542C54.9268 42.542 53.1289 44.3399 53.1289 46.5578C53.1289 48.7757 54.9268 50.5736 57.1447 50.5736Z" fill="#FFD23C"/>
<path d="M57.1443 43.5386C56.9925 43.5386 56.8437 43.5498 56.6982 43.5718C58.1546 43.7875 59.2718 45.0423 59.2718 46.5582C59.2718 48.0742 58.1546 49.329 56.6982 49.5447C56.8437 49.5662 56.993 49.5779 57.1443 49.5779C58.8121 49.5779 60.164 48.226 60.164 46.5582C60.164 44.8905 58.8121 43.5386 57.1443 43.5386Z" fill="#FFA50A"/>
</g>
<mask id="mask10_519_3417" style="mask-type:luminance" maskUnits="userSpaceOnUse" x="0" y="24" width="97" height="24">
<path d="M96.6944 24.7939H0L20.2011 47.512H76.4933L96.6944 24.7939Z" fill="white"/>
</mask>
<g mask="url(#mask10_519_3417)">
<path d="M27.2318 42.112C27.2318 40.5355 26.323 39.1719 25.0009 38.515L24.4679 38.0967H23.0159V38.1016C20.8909 38.206 19.2002 39.9616 19.2002 42.112C19.2002 44.2624 20.8909 46.0185 23.0159 46.1225V46.1273H24.4679L25.0009 45.7091C26.3226 45.0521 27.2318 43.6885 27.2318 42.112Z" fill="#FFA50A"/>
<path d="M28.3725 43.0295C28.8801 40.8707 27.5416 38.709 25.3827 38.2013C23.2238 37.6937 21.0621 39.0322 20.5545 41.1911C20.0468 43.35 21.3854 45.5116 23.5442 46.0193C25.7031 46.527 27.8648 45.1884 28.3725 43.0295Z" fill="#FFD23C"/>
<path d="M24.4681 39.0923C24.3163 39.0923 24.1674 39.104 24.022 39.1255C25.4784 39.3412 26.5955 40.596 26.5955 42.112C26.5955 43.6279 25.4784 44.8827 24.022 45.0984C24.1674 45.1199 24.3168 45.1316 24.4681 45.1316C26.1358 45.1316 27.4877 43.7797 27.4877 42.112C27.4877 40.4442 26.1358 39.0923 24.4681 39.0923Z" fill="#FFA50A"/>
</g>
<mask id="mask11_519_3417" style="mask-type:luminance" maskUnits="userSpaceOnUse" x="0" y="24" width="97" height="24">
<path d="M96.6944 24.7939H0L20.2011 47.512H76.4933L96.6944 24.7939Z" fill="white"/>
</mask>
<g mask="url(#mask11_519_3417)">
<path d="M37.8012 45.5749C37.8012 43.9984 36.8924 42.6348 35.5702 41.9778L35.0372 41.5596H33.5852V41.5644C31.4602 41.6689 29.7695 43.4245 29.7695 45.5749C29.7695 47.7253 31.4602 49.4814 33.5852 49.5853V49.5902H35.0372L35.5702 49.172C36.8924 48.515 37.8012 47.1514 37.8012 45.5749Z" fill="#FFA50A"/>
<path d="M35.0373 49.5907C37.2552 49.5907 39.0531 47.7928 39.0531 45.5749C39.0531 43.357 37.2552 41.5591 35.0373 41.5591C32.8194 41.5591 31.0215 43.357 31.0215 45.5749C31.0215 47.7928 32.8194 49.5907 35.0373 49.5907Z" fill="#FFD23C"/>
<path d="M35.0369 42.5552C34.8851 42.5552 34.7363 42.5664 34.5908 42.5884C36.0467 42.8041 37.1644 44.0589 37.1644 45.5748C37.1644 47.0908 36.0472 48.3456 34.5908 48.5613C34.7363 48.5828 34.8856 48.5945 35.0369 48.5945C36.7046 48.5945 38.0566 47.2426 38.0566 45.5748C38.0566 43.9071 36.7046 42.5552 35.0369 42.5552Z" fill="#FFA50A"/>
</g>
<mask id="mask12_519_3417" style="mask-type:luminance" maskUnits="userSpaceOnUse" x="0" y="24" width="97" height="24">
<path d="M96.6944 24.7939H0L20.2011 47.512H76.4933L96.6944 24.7939Z" fill="white"/>
</mask>
<g mask="url(#mask12_519_3417)">
<path d="M52.6029 49.2341C52.6029 47.6576 51.6941 46.294 50.372 45.637L49.839 45.2188H48.387V45.2236C46.262 45.3281 44.5713 47.0837 44.5713 49.2341C44.5713 51.3845 46.262 53.1406 48.387 53.2445V53.2494H49.839L50.372 52.8311C51.6941 52.1742 52.6029 50.811 52.6029 49.2341Z" fill="#FFA50A"/>
<path d="M52.677 52.0735C54.2452 50.5052 54.2452 47.9626 52.677 46.3943C51.1087 44.8261 48.566 44.826 46.9978 46.3943C45.4295 47.9626 45.4295 50.5052 46.9978 52.0735C48.566 53.6417 51.1087 53.6417 52.677 52.0735Z" fill="#FFD23C"/>
<path d="M49.8387 46.2139C49.6869 46.2139 49.538 46.2251 49.3926 46.2471C50.8485 46.4628 51.9662 47.7176 51.9662 49.2335C51.9662 50.7495 50.849 52.0043 49.3926 52.22C49.538 52.2415 49.6874 52.2532 49.8387 52.2532C51.5064 52.2532 52.8583 50.9013 52.8583 49.2335C52.8583 47.5658 51.5064 46.2139 49.8387 46.2139Z" fill="#FFA50A"/>
</g>
<mask id="mask13_519_3417" style="mask-type:luminance" maskUnits="userSpaceOnUse" x="0" y="24" width="97" height="24">
<path d="M96.6944 24.7939H0L20.2011 47.512H76.4933L96.6944 24.7939Z" fill="white"/>
</mask>
<g mask="url(#mask13_519_3417)">
<path d="M32.8661 41.5685C32.8661 39.9921 31.9573 38.6284 30.6352 37.9715L30.1022 37.5532H28.6502V37.5581C26.5251 37.6625 24.8345 39.4181 24.8345 41.5685C24.8345 43.719 26.5251 45.475 28.6502 45.579V45.5839H30.1022L30.6352 45.1656C31.9568 44.5087 32.8661 43.145 32.8661 41.5685Z" fill="#FFA50A"/>
<path d="M30.1027 45.5844C32.3206 45.5844 34.1185 43.7864 34.1185 41.5685C34.1185 39.3507 32.3206 37.5527 30.1027 37.5527C27.8849 37.5527 26.0869 39.3507 26.0869 41.5685C26.0869 43.7864 27.8849 45.5844 30.1027 45.5844Z" fill="#FFD23C"/>
<path d="M30.1023 38.5488C29.9506 38.5488 29.8017 38.5601 29.6562 38.582C31.1122 38.7977 32.2298 40.0526 32.2298 41.5685C32.2298 43.0844 31.1126 44.3393 29.6562 44.555C29.8017 44.5765 29.951 44.5882 30.1023 44.5882C31.7701 44.5882 33.122 43.2362 33.122 41.5685C33.122 39.9008 31.7701 38.5488 30.1023 38.5488Z" fill="#FFA50A"/>
</g>
<mask id="mask14_519_3417" style="mask-type:luminance" maskUnits="userSpaceOnUse" x="0" y="24" width="97" height="24">
<path d="M96.6944 24.7939H0L20.2011 47.512H76.4933L96.6944 24.7939Z" fill="white"/>
</mask>
<g mask="url(#mask14_519_3417)">
<path d="M28.2772 47.5121H21.4082C20.7415 47.5121 20.2012 46.9718 20.2012 46.3051C20.2012 45.6384 20.7415 45.0981 21.4082 45.0981H28.2772C28.9439 45.0981 29.4842 45.6384 29.4842 46.3051C29.4842 46.9713 28.9439 47.5121 28.2772 47.5121Z" fill="#FFA50A"/>
<path d="M28.9141 45.0977H23.4263V47.5121H28.9141C29.2289 47.5121 29.4842 47.2569 29.4842 46.9421V45.6682C29.4842 45.3529 29.2289 45.0977 28.9141 45.0977Z" fill="#FFC305"/>
<path d="M28.9141 47.2219H20.7712C20.4564 47.2219 20.2012 46.9667 20.2012 46.6519V46.9418C20.2012 47.2566 20.4564 47.5118 20.7712 47.5118H28.9141C29.2289 47.5118 29.4842 47.2566 29.4842 46.9418V46.6519C29.4842 46.9667 29.2289 47.2219 28.9141 47.2219Z" fill="#FA870A"/>
<path d="M28.9141 47.2219H23.4263V47.5118H28.9141C29.2289 47.5118 29.4842 47.2566 29.4842 46.9418V46.6519C29.4842 46.9667 29.2289 47.2219 28.9141 47.2219Z" fill="#FFA50A"/>
<path d="M28.5743 45.7801H21.1122C20.9961 45.7801 20.9023 45.6859 20.9023 45.5702C20.9023 45.4541 20.9965 45.3604 21.1122 45.3604H28.5743C28.6904 45.3604 28.7841 45.4545 28.7841 45.5702C28.7841 45.6859 28.6899 45.7801 28.5743 45.7801Z" fill="#FFD23C"/>
<path d="M28.5739 45.3599H23.4263V45.7801H28.5739C28.6901 45.7801 28.7838 45.6859 28.7838 45.5702C28.7838 45.4541 28.6896 45.3599 28.5739 45.3599Z" fill="#FFE65A"/>
</g>
<mask id="mask15_519_3417" style="mask-type:luminance" maskUnits="userSpaceOnUse" x="0" y="24" width="97" height="24">
<path d="M96.6944 24.7939H0L20.2011 47.512H76.4933L96.6944 24.7939Z" fill="white"/>
</mask>
<g mask="url(#mask15_519_3417)">
<path d="M45.7552 47.5121H38.8862C38.2195 47.5121 37.6792 46.9718 37.6792 46.3051C37.6792 45.6384 38.2195 45.0981 38.8862 45.0981H45.7552C46.4219 45.0981 46.9622 45.6384 46.9622 46.3051C46.9627 46.9713 46.4219 47.5121 45.7552 47.5121Z" fill="#FFA50A"/>
<path d="M46.3921 45.0977H40.9043V47.5121H46.3921C46.7069 47.5121 46.9622 47.2569 46.9622 46.9421V45.6682C46.9627 45.3529 46.7069 45.0977 46.3921 45.0977Z" fill="#FFC305"/>
<path d="M46.3922 47.2219H38.2493C37.9345 47.2219 37.6792 46.9667 37.6792 46.6519V46.9418C37.6792 47.2566 37.9345 47.5118 38.2493 47.5118H46.3922C46.707 47.5118 46.9622 47.2566 46.9622 46.9418V46.6519C46.9627 46.9667 46.707 47.2219 46.3922 47.2219Z" fill="#FA870A"/>
<path d="M46.3921 47.2219H40.9043V47.5118H46.3921C46.7069 47.5118 46.9622 47.2566 46.9622 46.9418V46.6519C46.9627 46.9667 46.7069 47.2219 46.3921 47.2219Z" fill="#FFA50A"/>
<path d="M46.0518 45.7801H38.5898C38.4736 45.7801 38.3799 45.6859 38.3799 45.5702C38.3799 45.4541 38.4741 45.3604 38.5898 45.3604H46.0518C46.168 45.3604 46.2617 45.4545 46.2617 45.5702C46.2617 45.6859 46.1675 45.7801 46.0518 45.7801Z" fill="#FFD23C"/>
<path d="M46.0524 45.3599H40.9053V45.7801H46.0524C46.1686 45.7801 46.2623 45.6859 46.2623 45.5702C46.2623 45.4541 46.1681 45.3599 46.0524 45.3599Z" fill="#FFE65A"/>
</g>
<mask id="mask16_519_3417" style="mask-type:luminance" maskUnits="userSpaceOnUse" x="0" y="24" width="97" height="24">
<path d="M96.6944 24.7939H0L20.2011 47.512H76.4933L96.6944 24.7939Z" fill="white"/>
</mask>
<g mask="url(#mask16_519_3417)">
<path d="M45.7552 45.2475H38.8862C38.2195 45.2475 37.6792 44.7072 37.6792 44.0405C37.6792 43.3738 38.2195 42.8335 38.8862 42.8335H45.7552C46.4219 42.8335 46.9622 43.3738 46.9622 44.0405C46.9627 44.7067 46.4219 45.2475 45.7552 45.2475Z" fill="#FFA50A"/>
<path d="M46.3921 42.833H40.9043V45.2475H46.3921C46.7069 45.2475 46.9622 44.9922 46.9622 44.6774V43.4036C46.9627 43.0883 46.7069 42.833 46.3921 42.833Z" fill="#FFC305"/>
<path d="M46.3922 44.9573H38.2493C37.9345 44.9573 37.6792 44.702 37.6792 44.3872V44.6771C37.6792 44.9919 37.9345 45.2472 38.2493 45.2472H46.3922C46.707 45.2472 46.9622 44.9919 46.9622 44.6771V44.3872C46.9627 44.702 46.707 44.9573 46.3922 44.9573Z" fill="#FA870A"/>
<path d="M46.3921 44.9573H40.9043V45.2472H46.3921C46.7069 45.2472 46.9622 44.9919 46.9622 44.6771V44.3872C46.9627 44.702 46.7069 44.9573 46.3921 44.9573Z" fill="#FFA50A"/>
<path d="M46.0518 43.5154H38.5898C38.4736 43.5154 38.3799 43.4212 38.3799 43.3056C38.3799 43.1894 38.4741 43.0957 38.5898 43.0957H46.0518C46.168 43.0957 46.2617 43.1899 46.2617 43.3056C46.2617 43.4212 46.1675 43.5154 46.0518 43.5154Z" fill="#FFD23C"/>
<path d="M46.0524 43.0952H40.9053V43.5154H46.0524C46.1686 43.5154 46.2623 43.4212 46.2623 43.3056C46.2623 43.1894 46.1681 43.0952 46.0524 43.0952Z" fill="#FFE65A"/>
</g>
<mask id="mask17_519_3417" style="mask-type:luminance" maskUnits="userSpaceOnUse" x="0" y="24" width="97" height="24">
<path d="M96.6944 24.7939H0L20.2011 47.512H76.4933L96.6944 24.7939Z" fill="white"/>
</mask>
<g mask="url(#mask17_519_3417)">
<path d="M45.7552 42.9828H38.8862C38.2195 42.9828 37.6792 42.4425 37.6792 41.7758C37.6792 41.1091 38.2195 40.5688 38.8862 40.5688H45.7552C46.4219 40.5688 46.9622 41.1091 46.9622 41.7758C46.9627 42.4421 46.4219 42.9828 45.7552 42.9828Z" fill="#FFA50A"/>
<path d="M46.3921 40.5679H40.9043V42.9823H46.3921C46.7069 42.9823 46.9622 42.7271 46.9622 42.4123V41.1384C46.9627 40.8231 46.7069 40.5679 46.3921 40.5679Z" fill="#FFC305"/>
<path d="M46.3922 42.6926H38.2493C37.9345 42.6926 37.6792 42.4374 37.6792 42.1226V42.4125C37.6792 42.7273 37.9345 42.9825 38.2493 42.9825H46.3922C46.707 42.9825 46.9622 42.7273 46.9622 42.4125V42.1226C46.9627 42.4374 46.707 42.6926 46.3922 42.6926Z" fill="#FA870A"/>
<path d="M46.3921 42.6926H40.9043V42.9825H46.3921C46.7069 42.9825 46.9622 42.7273 46.9622 42.4125V42.1226C46.9627 42.4374 46.7069 42.6926 46.3921 42.6926Z" fill="#FFA50A"/>
<path d="M46.0518 41.2508H38.5898C38.4736 41.2508 38.3799 41.1566 38.3799 41.0409C38.3799 40.9248 38.4741 40.8311 38.5898 40.8311H46.0518C46.168 40.8311 46.2617 40.9252 46.2617 41.0409C46.2617 41.1566 46.1675 41.2508 46.0518 41.2508Z" fill="#FFD23C"/>
<path d="M46.0524 40.8306H40.9053V41.2508H46.0524C46.1686 41.2508 46.2623 41.1566 46.2623 41.0409C46.2623 40.9253 46.1681 40.8306 46.0524 40.8306Z" fill="#FFE65A"/>
</g>
<mask id="mask18_519_3417" style="mask-type:luminance" maskUnits="userSpaceOnUse" x="0" y="24" width="97" height="24">
<path d="M96.6944 24.7939H0L20.2011 47.512H76.4933L96.6944 24.7939Z" fill="white"/>
</mask>
<g mask="url(#mask18_519_3417)">
<path d="M45.7552 40.7177H38.8862C38.2195 40.7177 37.6792 40.1774 37.6792 39.5107C37.6792 38.844 38.2195 38.3037 38.8862 38.3037H45.7552C46.4219 38.3037 46.9622 38.844 46.9622 39.5107C46.9627 40.1769 46.4219 40.7177 45.7552 40.7177Z" fill="#FFA50A"/>
<path d="M46.3921 38.3027H40.9043V40.7172H46.3921C46.7069 40.7172 46.9622 40.4619 46.9622 40.1471V38.8733C46.9627 38.558 46.7069 38.3027 46.3921 38.3027Z" fill="#FFC305"/>
<path d="M46.3922 40.428H38.2493C37.9345 40.428 37.6792 40.1727 37.6792 39.8579V40.1478C37.6792 40.4626 37.9345 40.7179 38.2493 40.7179H46.3922C46.707 40.7179 46.9622 40.4626 46.9622 40.1478V39.8579C46.9627 40.1727 46.707 40.428 46.3922 40.428Z" fill="#FA870A"/>
<path d="M46.3921 40.428H40.9043V40.7179H46.3921C46.7069 40.7179 46.9622 40.4626 46.9622 40.1478V39.8579C46.9627 40.1727 46.7069 40.428 46.3921 40.428Z" fill="#FFA50A"/>
<path d="M46.0518 38.9857H38.5898C38.4736 38.9857 38.3799 38.8915 38.3799 38.7758C38.3799 38.6596 38.4741 38.5659 38.5898 38.5659H46.0518C46.168 38.5659 46.2617 38.6601 46.2617 38.7758C46.2617 38.8915 46.1675 38.9857 46.0518 38.9857Z" fill="#FFD23C"/>
<path d="M46.0524 38.5654H40.9053V38.9857H46.0524C46.1686 38.9857 46.2623 38.8915 46.2623 38.7758C46.2623 38.6601 46.1681 38.5654 46.0524 38.5654Z" fill="#FFE65A"/>
</g>
<mask id="mask19_519_3417" style="mask-type:luminance" maskUnits="userSpaceOnUse" x="0" y="24" width="97" height="24">
<path d="M96.6944 24.7939H0L20.2011 47.512H76.4933L96.6944 24.7939Z" fill="white"/>
</mask>
<g mask="url(#mask19_519_3417)">
<path d="M69.7601 47.5121H62.8911C62.2244 47.5121 61.6841 46.9718 61.6841 46.3051C61.6841 45.6384 62.2244 45.0981 62.8911 45.0981H69.7601C70.4268 45.0981 70.9671 45.6384 70.9671 46.3051C70.9671 46.9713 70.4268 47.5121 69.7601 47.5121Z" fill="#FFA50A"/>
<path d="M70.397 45.0977H64.9092V47.5121H70.397C70.7118 47.5121 70.9671 47.2569 70.9671 46.9421V45.6682C70.9671 45.3529 70.7118 45.0977 70.397 45.0977Z" fill="#FFC305"/>
<path d="M70.3971 47.2219H62.2541C61.9393 47.2219 61.6841 46.9667 61.6841 46.6519V46.9418C61.6841 47.2566 61.9393 47.5118 62.2541 47.5118H70.3971C70.7119 47.5118 70.9671 47.2566 70.9671 46.9418V46.6519C70.9671 46.9667 70.7119 47.2219 70.3971 47.2219Z" fill="#FA870A"/>
<path d="M70.397 47.2219H64.9092V47.5118H70.397C70.7118 47.5118 70.9671 47.2566 70.9671 46.9418V46.6519C70.9671 46.9667 70.7118 47.2219 70.397 47.2219Z" fill="#FFA50A"/>
<path d="M70.0567 45.7801H62.5946C62.4785 45.7801 62.3848 45.6859 62.3848 45.5702C62.3848 45.4541 62.479 45.3604 62.5946 45.3604H70.0567C70.1729 45.3604 70.2666 45.4545 70.2666 45.5702C70.2666 45.6859 70.1724 45.7801 70.0567 45.7801Z" fill="#FFD23C"/>
<path d="M70.0568 45.3599H64.9092V45.7801H70.0568C70.173 45.7801 70.2667 45.6859 70.2667 45.5702C70.2667 45.4541 70.1725 45.3599 70.0568 45.3599Z" fill="#FFE65A"/>
</g>
<mask id="mask20_519_3417" style="mask-type:luminance" maskUnits="userSpaceOnUse" x="0" y="24" width="97" height="24">
<path d="M96.6944 24.7939H0L20.2011 47.512H76.4933L96.6944 24.7939Z" fill="white"/>
</mask>
<g mask="url(#mask20_519_3417)">
<path d="M69.7601 45.2533H62.8911C62.2244 45.2533 61.6841 44.713 61.6841 44.0463C61.6841 43.3796 62.2244 42.8394 62.8911 42.8394H69.7601C70.4268 42.8394 70.9671 43.3796 70.9671 44.0463C70.9671 44.713 70.4268 45.2533 69.7601 45.2533Z" fill="#FFA50A"/>
<path d="M70.397 42.8394H64.9092V45.2538H70.397C70.7118 45.2538 70.9671 44.9986 70.9671 44.6838V43.4099C70.9671 43.0946 70.7118 42.8394 70.397 42.8394Z" fill="#FFC305"/>
<path d="M70.3971 44.9636H62.2541C61.9393 44.9636 61.6841 44.7084 61.6841 44.3936V44.6835C61.6841 44.9983 61.9393 45.2535 62.2541 45.2535H70.3971C70.7119 45.2535 70.9671 44.9983 70.9671 44.6835V44.3936C70.9671 44.7084 70.7119 44.9636 70.3971 44.9636Z" fill="#FA870A"/>
<path d="M70.397 44.9636H64.9092V45.2535H70.397C70.7118 45.2535 70.9671 44.9983 70.9671 44.6835V44.3936C70.9671 44.7084 70.7118 44.9636 70.397 44.9636Z" fill="#FFA50A"/>
<path d="M70.0567 43.5213H62.5946C62.4785 43.5213 62.3848 43.4271 62.3848 43.3114C62.3848 43.1953 62.479 43.1016 62.5946 43.1016H70.0567C70.1729 43.1016 70.2666 43.1958 70.2666 43.3114C70.2666 43.4276 70.1724 43.5213 70.0567 43.5213Z" fill="#FFD23C"/>
<path d="M70.0568 43.1016H64.9092V43.5213H70.0568C70.173 43.5213 70.2667 43.4271 70.2667 43.3114C70.2667 43.1958 70.1725 43.1016 70.0568 43.1016Z" fill="#FFE65A"/>
</g>
<path d="M38.3411 39.1681L38.5569 39.8572C38.7785 40.5654 39.3329 41.1199 40.0411 41.3415L40.7302 41.5572C41.1036 41.6743 41.1036 42.2029 40.7302 42.32L40.0411 42.5358C39.3329 42.7573 38.7785 43.3123 38.5569 44.02L38.3411 44.7091C38.224 45.0825 37.6954 45.0825 37.5783 44.7091L37.3626 44.02C37.141 43.3118 36.5865 42.7573 35.8784 42.5358L35.1892 42.32C34.8158 42.2029 34.8158 41.6743 35.1892 41.5572L35.8784 41.3415C36.5865 41.1199 37.141 40.5649 37.3626 39.8572L37.5783 39.1681C37.6954 38.7942 38.224 38.7942 38.3411 39.1681Z" fill="white"/>
<path d="M70.6107 30.7903L70.8264 31.4794C71.048 32.1876 71.6029 32.7421 72.3106 32.9636L72.9998 33.1794C73.3731 33.2965 73.3731 33.8251 72.9998 33.9422L72.3106 34.1579C71.6024 34.3795 71.048 34.9345 70.8264 35.6422L70.6107 36.3313C70.4935 36.7047 69.965 36.7047 69.8478 36.3313L69.6321 35.6422C69.4105 34.934 68.8556 34.3795 68.1479 34.1579L67.4587 33.9422C67.0854 33.8251 67.0854 33.2965 67.4587 33.1794L68.1479 32.9636C68.8561 32.7421 69.4105 32.1876 69.6321 31.4794L69.8478 30.7903C69.9654 30.4169 70.494 30.4169 70.6107 30.7903Z" fill="white"/>
<path d="M32.6606 37.8797L32.7762 38.2482C32.8948 38.6269 33.1916 38.9237 33.5703 39.0423L33.9388 39.1579C34.1389 39.2204 34.1389 39.5035 33.9388 39.566L33.5703 39.6816C33.1916 39.8002 32.8948 40.097 32.7762 40.4757L32.6606 40.8442C32.5981 41.0443 32.315 41.0443 32.2525 40.8442L32.1369 40.4757C32.0183 40.097 31.7215 39.8002 31.3428 39.6816L30.9743 39.566C30.7742 39.5035 30.7742 39.2204 30.9743 39.1579L31.3428 39.0423C31.7215 38.9237 32.0183 38.6269 32.1369 38.2482L32.2525 37.8797C32.315 37.6801 32.5981 37.6801 32.6606 37.8797Z" fill="white"/>
<path d="M40.4797 30.0224L40.5724 30.3187C40.6676 30.6227 40.9058 30.8609 41.2103 30.9566L41.5066 31.0493C41.6672 31.0996 41.6672 31.3265 41.5066 31.3768L41.2103 31.4695C40.9063 31.5647 40.6676 31.8029 40.5724 32.1074L40.4797 32.4037C40.4294 32.5643 40.2025 32.5643 40.1522 32.4037L40.0595 32.1074C39.9643 31.8034 39.7261 31.5652 39.4216 31.4695L39.1253 31.3768C38.9647 31.3265 38.9647 31.0996 39.1253 31.0493L39.4216 30.9566C39.7256 30.8614 39.9638 30.6232 40.0595 30.3187L40.1522 30.0224C40.2025 29.8623 40.4294 29.8623 40.4797 30.0224Z" fill="white"/>
<path d="M51.6765 40.2542L51.7692 40.5505C51.8644 40.8545 52.1026 41.0927 52.4071 41.1884L52.7034 41.2811C52.8639 41.3314 52.8639 41.5583 52.7034 41.6086L52.4071 41.7013C52.103 41.7965 51.8649 42.0347 51.7692 42.3392L51.6765 42.6355C51.6262 42.7961 51.3993 42.7961 51.349 42.6355L51.2562 42.3392C51.1611 42.0352 50.9224 41.7965 50.6183 41.7013L50.3226 41.6086C50.162 41.5583 50.162 41.3314 50.3226 41.2811L50.6183 41.1884C50.9224 41.0932 51.1606 40.855 51.2562 40.5505L51.349 40.2542C51.3993 40.0936 51.6262 40.0936 51.6765 40.2542Z" fill="white"/>
</svg>
