<svg width="390" height="327" viewBox="0 0 390 327" fill="none" xmlns="http://www.w3.org/2000/svg">
<path opacity="0.3" fill-rule="evenodd" clip-rule="evenodd" d="M301.344 26.7278C320.565 42.6737 333.155 65.7198 335.255 95.2011C341.104 177.318 276.67 235.918 194.378 255.331C174.913 259.923 154.312 262.382 133.181 262.49C180.884 302.418 264.456 324.262 392.703 292.757L397.633 311.045C250.798 347.116 154.69 316.542 103.838 261.134C44.0651 255.307 -17.641 230.51 -68.1946 182.042L-54.1771 168.718C-12.2672 208.899 37.7628 231.553 87.3077 239.89C52.8711 187.206 53.7419 121.47 84.2684 75.183C118.621 23.095 178.379 -1.63838 230.92 1.15233C257.261 2.55139 282.266 10.9 301.344 26.7278ZM113.76 243.005C73.5737 194.467 72.1124 129.059 101.008 85.244C131.337 39.2567 184.09 17.578 229.821 20.007C252.618 21.2178 273.188 28.387 288.369 40.9812C303.407 53.4573 313.757 71.7372 315.519 96.4822C320.5 166.402 266.106 218.958 189.633 236.999C165.806 242.619 140.073 244.786 113.76 243.005Z" fill="#BFD0EA"/>
</svg>
