<svg width="142" height="143" viewBox="0 0 142 143" fill="none" xmlns="http://www.w3.org/2000/svg">
<g filter="url(#filter0_d_1_2276)">
<path d="M97.1433 10.1977L23.6925 25.545C14.2947 27.5087 8.26348 36.7409 10.2215 46.1658L23.9697 112.342C25.9277 121.767 35.1335 127.815 44.5314 125.851L117.982 110.504C127.38 108.54 133.411 99.3082 131.453 89.8833L117.705 23.7074C115.747 14.2825 106.541 8.23399 97.1433 10.1977Z" fill="#C48BDA"/>
<path fill-rule="evenodd" clip-rule="evenodd" d="M22.5574 20.0813L96.0081 4.73396C108.415 2.14161 120.568 10.1266 123.153 22.569L136.901 88.7449C139.486 101.187 131.524 113.375 119.117 115.968L45.6664 131.315C33.2596 133.907 21.1065 125.922 18.5216 113.48L4.77343 47.3041C2.18851 34.8617 10.1507 22.6737 22.5574 20.0813ZM23.6924 25.545L97.1432 10.1976C106.541 8.23395 115.747 14.2825 117.705 23.7073L131.453 89.8833C133.411 99.3082 127.38 108.54 117.982 110.504L44.5313 125.851C35.1334 127.815 25.9276 121.767 23.9696 112.342L10.2214 46.1657C8.26338 36.7408 14.2946 27.5086 23.6924 25.545Z" fill="white"/>
<path d="M83.5953 75.6535C89.6288 74.3929 93.505 68.4852 92.2529 62.4585C91.0008 56.4318 85.0947 52.5681 79.0612 53.8288C73.0277 55.0895 69.1516 60.9971 70.4037 67.0238C71.6557 73.0506 77.5618 76.9142 83.5953 75.6535Z" fill="white"/>
<path d="M62.1789 80.1269C68.2124 78.8662 72.0885 72.9586 70.8364 66.9318C69.5844 60.9051 63.6782 57.0415 57.6447 58.3022C51.6112 59.5629 47.7351 65.4705 48.9872 71.4972C50.2392 77.5239 56.1454 81.3876 62.1789 80.1269Z" fill="white"/>
<path d="M82.5122 71.5928C86.1317 70.8365 88.4569 67.2921 87.7057 63.676C86.9545 60.06 83.4113 57.7417 79.7917 58.498C76.1722 59.2543 73.8469 62.7988 74.5982 66.4148C75.3494 70.0309 78.8926 72.3491 82.5122 71.5928Z" fill="#30263D"/>
<path d="M60.9905 76.0901C64.61 75.3338 66.9352 71.7894 66.184 68.1733C65.4328 64.5573 61.8895 62.239 58.27 62.9953C54.6505 63.7516 52.3252 67.2961 53.0765 70.9121C53.8277 74.5281 57.3709 76.8464 60.9905 76.0901Z" fill="#30263D"/>
<path d="M92.8947 65.6645L47.7164 75.1044L49.3808 83.1157L94.5591 73.6758L92.8947 65.6645Z" fill="#C48BDA"/>
<path fill-rule="evenodd" clip-rule="evenodd" d="M83.6706 81.8832C84.5101 82.8503 84.4138 84.311 83.4555 85.1458C79.4777 88.611 75.2071 89.5497 71.953 89.6103C70.3348 89.6404 68.9629 89.4548 67.9853 89.2587C67.4951 89.1604 67.0997 89.0587 66.8171 88.978C66.6756 88.9376 66.5619 88.9024 66.4783 88.8753C66.4364 88.8618 66.402 88.8503 66.3754 88.8412C66.362 88.8366 66.3506 88.8327 66.3412 88.8294L66.3285 88.8249L66.3233 88.823L66.321 88.8222C66.3199 88.8218 66.3188 88.8214 67.0814 86.644L66.3188 88.8214C65.1165 88.3903 64.4832 87.0659 64.9043 85.8633C65.3242 84.6643 66.6337 84.0391 67.8331 84.4626C67.8359 84.4636 67.8388 84.4647 67.8417 84.4657L67.8401 84.4651L67.8371 84.464L67.833 84.4626C67.8312 84.462 67.8312 84.462 67.833 84.4626C67.833 84.4626 67.833 84.4626 67.8331 84.4626C67.8367 84.4639 67.8474 84.4675 67.8649 84.4731C67.9 84.4845 67.9625 84.5041 68.0501 84.5291C68.2256 84.5792 68.5004 84.6507 68.858 84.7224C69.5759 84.8664 70.61 85.0075 71.8336 84.9847C74.2631 84.9394 77.4196 84.2535 80.4155 81.6437C81.3738 80.8089 82.8311 80.9162 83.6706 81.8832ZM67.8417 84.4657C67.8417 84.4657 67.8418 84.4657 67.8419 84.4658C67.8419 84.4658 67.8419 84.4658 67.8419 84.4658L67.8417 84.4657Z" fill="#6D2860"/>
<path d="M80.4322 77.2695C83.7591 77.589 86.5661 76.6971 86.7017 75.2773C86.8373 73.8574 84.2502 72.4474 80.9232 72.1278C77.5962 71.8082 74.7893 72.7002 74.6537 74.12C74.5181 75.5399 77.1052 76.9499 80.4322 77.2695Z" fill="#AA72BE"/>
<path d="M66.1645 80.553C69.0873 78.9276 70.8977 76.5987 70.208 75.3513C69.5182 74.1039 66.5897 74.4104 63.6668 76.0359C60.7439 77.6613 58.9336 79.9902 59.6233 81.2376C60.313 82.4849 63.2416 82.1785 66.1645 80.553Z" fill="#AA72BE"/>
</g>
<defs>
<filter id="filter0_d_1_2276" x="-2.90698" y="0.0401001" width="147.488" height="146.969" filterUnits="userSpaceOnUse" color-interpolation-filters="sRGB">
<feFlood flood-opacity="0" result="BackgroundImageFix"/>
<feColorMatrix in="SourceAlpha" type="matrix" values="0 0 0 0 0 0 0 0 0 0 0 0 0 0 0 0 0 0 127 0" result="hardAlpha"/>
<feOffset dy="8"/>
<feGaussianBlur stdDeviation="1.5"/>
<feComposite in2="hardAlpha" operator="out"/>
<feColorMatrix type="matrix" values="0 0 0 0 0 0 0 0 0 0 0 0 0 0 0 0 0 0 0.05 0"/>
<feBlend mode="normal" in2="BackgroundImageFix" result="effect1_dropShadow_1_2276"/>
<feBlend mode="normal" in="SourceGraphic" in2="effect1_dropShadow_1_2276" result="shape"/>
</filter>
</defs>
</svg>
