<svg width="141" height="137" viewBox="0 0 141 137" fill="none" xmlns="http://www.w3.org/2000/svg">
<g filter="url(#filter0_d_1_2265)">
<path d="M115.181 21.2737L41.0592 10.273C31.5766 8.86565 22.7391 15.3495 21.3202 24.7551L11.3565 90.8036C9.93762 100.209 16.4746 108.975 25.9573 110.382L100.079 121.383C109.562 122.79 118.399 116.306 119.818 106.901L129.782 40.8523C131.201 31.4467 124.664 22.6811 115.181 21.2737Z" fill="#FBBF05"/>
<path fill-rule="evenodd" clip-rule="evenodd" d="M42.0673 3.59067L116.189 14.5914C129.36 16.5461 138.476 28.7322 136.497 41.849L126.533 107.897C124.554 121.014 112.242 130.02 99.0709 128.065L24.9492 117.065C11.7786 115.11 2.66267 102.924 4.6414 89.807L14.6051 23.7585C16.5839 10.6418 28.8967 1.63597 42.0673 3.59067ZM41.0592 10.273L115.181 21.2737C124.664 22.6811 131.201 31.4467 129.782 40.8523L119.818 106.901C118.399 116.306 109.562 122.79 100.079 121.383L25.9573 110.382C16.4746 108.975 9.93763 100.209 11.3565 90.8036L21.3202 24.7552C22.7391 15.3495 31.5766 8.86565 41.0592 10.273Z" fill="white"/>
<path d="M92.1067 73.5833C93.0141 67.5682 88.8133 61.9594 82.7239 61.0556C76.6344 60.1519 70.9624 64.2954 70.055 70.3105C69.1476 76.3255 73.3484 81.9344 79.4379 82.8381C85.5273 83.7419 91.1993 79.5983 92.1067 73.5833Z" fill="white"/>
<path d="M70.4936 70.3764C71.401 64.3614 67.2001 58.7525 61.1107 57.8488C55.0213 56.945 49.3493 61.0886 48.4419 67.1036C47.5345 73.1187 51.7353 78.7275 57.8247 79.6313C63.9142 80.535 69.5862 76.3915 70.4936 70.3764Z" fill="white"/>
<path d="M87.4222 73.1504C87.9666 69.5414 85.447 66.1762 81.7945 65.6342C78.1419 65.0921 74.7396 67.5783 74.1951 71.1874C73.6507 74.7964 76.1703 78.1616 79.8229 78.7036C83.4754 79.2457 86.8777 76.7595 87.4222 73.1504Z" fill="black"/>
<path d="M65.7038 69.9275C66.2483 66.3185 63.7287 62.9533 60.0761 62.4113C56.4236 61.8692 53.0213 64.3554 52.4768 67.9645C51.9324 71.5735 54.452 74.9387 58.1045 75.4807C61.7571 76.0228 65.1594 73.5366 65.7038 69.9275Z" fill="black"/>
<path d="M92.6811 76.2589L47.4133 68.9384L45.071 83.188L90.3388 90.5085L92.6811 76.2589Z" fill="#FBBF05"/>
<path opacity="0.41" d="M87.21 97.3039C93.0049 97.3039 97.7027 92.6443 97.7027 86.8964C97.7027 81.1486 93.0049 76.489 87.21 76.489C81.415 76.489 76.7173 81.1486 76.7173 86.8964C76.7173 92.6443 81.415 97.3039 87.21 97.3039Z" fill="#EE8A2E"/>
<path opacity="0.41" d="M47.7918 91.4533C53.5867 91.4533 58.2845 86.7937 58.2845 81.0459C58.2845 75.298 53.5867 70.6384 47.7918 70.6384C41.9968 70.6384 37.2991 75.298 37.2991 81.0459C37.2991 86.7937 41.9968 91.4533 47.7918 91.4533Z" fill="#EE8A2E"/>
<path fill-rule="evenodd" clip-rule="evenodd" d="M60.2802 84.7344C58.8044 86.492 58.8052 86.4927 58.8061 86.4934L58.808 86.495L58.8123 86.4985L58.8226 86.5069C58.8303 86.5132 58.8396 86.5207 58.8506 86.5295C58.8724 86.547 58.9007 86.5693 58.9353 86.5961C59.0044 86.6496 59.0988 86.7209 59.2176 86.8065C59.4549 86.9774 59.7906 87.2062 60.2166 87.464C61.0662 87.9782 62.2896 88.617 63.8196 89.1397C66.8963 90.1909 71.2339 90.7748 76.178 88.9192C77.3692 88.4722 77.9694 87.152 77.5187 85.9705C77.068 84.789 75.737 84.1936 74.5458 84.6407C70.8222 86.0382 67.6189 85.5994 65.3217 84.8145C64.1647 84.4192 63.2429 83.9366 62.619 83.559C62.3082 83.3709 62.0751 83.2111 61.9278 83.105C61.8542 83.052 61.8024 83.0127 61.7733 82.9902C61.7589 82.979 61.7501 82.972 61.7471 82.9696C60.7686 82.1692 59.3208 82.3028 58.5082 83.2706C57.6931 84.2413 57.8257 85.6835 58.8044 86.492L60.2802 84.7344Z" fill="#C65A17"/>
</g>
<defs>
<filter id="filter0_d_1_2265" x="-2.93579" y="0.0458069" width="147.01" height="139.564" filterUnits="userSpaceOnUse" color-interpolation-filters="sRGB">
<feFlood flood-opacity="0" result="BackgroundImageFix"/>
<feColorMatrix in="SourceAlpha" type="matrix" values="0 0 0 0 0 0 0 0 0 0 0 0 0 0 0 0 0 0 127 0" result="hardAlpha"/>
<feOffset dy="4"/>
<feGaussianBlur stdDeviation="2"/>
<feComposite in2="hardAlpha" operator="out"/>
<feColorMatrix type="matrix" values="0 0 0 0 0 0 0 0 0 0 0 0 0 0 0 0 0 0 0.05 0"/>
<feBlend mode="normal" in2="BackgroundImageFix" result="effect1_dropShadow_1_2265"/>
<feBlend mode="normal" in="SourceGraphic" in2="effect1_dropShadow_1_2265" result="shape"/>
</filter>
</defs>
</svg>
