<svg width="104" height="104" viewBox="0 0 104 104" fill="none" xmlns="http://www.w3.org/2000/svg">
<g filter="url(#filter0_dd_1_2255)">
<path d="M61.0004 6.07052L16.5974 25.9687C10.9162 28.5146 8.38626 35.1579 10.9467 40.807L28.9249 80.4728C31.4853 86.1219 38.1664 88.6375 43.8477 86.0916L88.2506 66.1935C93.9319 63.6476 96.4618 57.0042 93.9014 51.3551L75.9232 11.6893C73.3628 6.04023 66.6816 3.52461 61.0004 6.07052Z" fill="#FBBF05"/>
<path fill-rule="evenodd" clip-rule="evenodd" d="M14.5016 21.3446L58.9046 1.44642C67.1503 -2.24872 76.8521 1.40117 80.5711 9.60649L98.5493 49.2723C102.268 57.4776 98.5922 67.1224 90.3465 70.8176L45.9435 90.7157C37.6978 94.4109 27.996 90.761 24.277 82.5557L6.29881 42.8899C2.57982 34.6845 6.25585 25.0397 14.5016 21.3446ZM16.5974 25.9687L61.0004 6.07053C66.6816 3.52461 73.3628 6.04023 75.9232 11.6893L93.9014 51.3551C96.4618 57.0042 93.9319 63.6476 88.2507 66.1935L43.8477 86.0916C38.1665 88.6375 31.4853 86.1219 28.9249 80.4728L10.9467 40.807C8.38627 35.158 10.9162 28.5146 16.5974 25.9687Z" fill="white"/>
<path opacity="0.41" d="M70.6934 61.8201C74.4599 61.8201 77.5132 58.7841 77.5132 55.0389C77.5132 51.2938 74.4599 48.2577 70.6934 48.2577C66.9269 48.2577 63.8736 51.2938 63.8736 55.0389C63.8736 58.7841 66.9269 61.8201 70.6934 61.8201Z" fill="#EE8A2E"/>
<path opacity="0.41" d="M47.0793 72.4048C50.8457 72.4048 53.8991 69.3688 53.8991 65.6236C53.8991 61.8785 50.8457 58.8424 47.0793 58.8424C43.3128 58.8424 40.2595 61.8785 40.2595 65.6236C40.2595 69.3688 43.3128 72.4048 47.0793 72.4048Z" fill="#EE8A2E"/>
<path d="M63.6532 53.4536C67.3013 51.8188 68.9313 47.5649 67.2939 43.9523C65.6566 40.3398 61.3718 38.7365 57.7237 40.3713C54.0756 42.0061 52.4456 46.26 54.0829 49.8725C55.7203 53.4851 60.005 55.0884 63.6532 53.4536Z" fill="white"/>
<path d="M50.7057 59.2543C54.3538 57.6195 55.9838 53.3656 54.3464 49.753C52.7091 46.1405 48.4243 44.5372 44.7762 46.172C41.1281 47.8068 39.4981 52.0607 41.1355 55.6732C42.7728 59.2858 47.0576 60.8891 50.7057 59.2543Z" fill="white"/>
<path d="M62.3724 50.6039C64.561 49.6232 65.539 47.0713 64.5568 44.9042C63.5746 42.7371 61.0041 41.7754 58.8155 42.7562C56.6268 43.737 55.6488 46.2889 56.6311 48.456C57.6133 50.623 60.1838 51.5847 62.3724 50.6039Z" fill="black"/>
<path d="M49.3626 56.4341C51.5512 55.4533 52.5292 52.9014 51.547 50.7344C50.5648 48.5673 47.9943 47.6056 45.8056 48.5864C43.617 49.5672 42.639 52.119 43.6212 54.2861C44.6034 56.4532 47.1739 57.4149 49.3626 56.4341Z" fill="black"/>
</g>
<defs>
<filter id="filter0_dd_1_2255" x="0" y="0" width="104.001" height="104" filterUnits="userSpaceOnUse" color-interpolation-filters="sRGB">
<feFlood flood-opacity="0" result="BackgroundImageFix"/>
<feColorMatrix in="SourceAlpha" type="matrix" values="0 0 0 0 0 0 0 0 0 0 0 0 0 0 0 0 0 0 127 0" result="hardAlpha"/>
<feOffset dy="4"/>
<feGaussianBlur stdDeviation="2"/>
<feComposite in2="hardAlpha" operator="out"/>
<feColorMatrix type="matrix" values="0 0 0 0 0 0 0 0 0 0 0 0 0 0 0 0 0 0 0.05 0"/>
<feBlend mode="normal" in2="BackgroundImageFix" result="effect1_dropShadow_1_2255"/>
<feColorMatrix in="SourceAlpha" type="matrix" values="0 0 0 0 0 0 0 0 0 0 0 0 0 0 0 0 0 0 127 0" result="hardAlpha"/>
<feOffset dy="8"/>
<feGaussianBlur stdDeviation="1.5"/>
<feComposite in2="hardAlpha" operator="out"/>
<feColorMatrix type="matrix" values="0 0 0 0 0 0 0 0 0 0 0 0 0 0 0 0 0 0 0.05 0"/>
<feBlend mode="normal" in2="effect1_dropShadow_1_2255" result="effect2_dropShadow_1_2255"/>
<feBlend mode="normal" in="SourceGraphic" in2="effect2_dropShadow_1_2255" result="shape"/>
</filter>
</defs>
</svg>
