<svg width="157" height="157" viewBox="0 0 157 157" fill="none" xmlns="http://www.w3.org/2000/svg">
<g filter="url(#filter0_d_1_2243)">
<path d="M30.0644 106.107L88.149 133.299C95.58 136.777 104.598 133.303 108.291 125.539L134.223 71.0143C137.916 63.2497 134.886 54.1344 127.455 50.6543L69.3701 23.4626C61.9391 19.9845 52.9209 23.4579 49.2279 31.2225L23.2959 85.7469C19.6029 93.5115 22.6331 102.627 30.0644 106.107Z" fill="#C48BDA"/>
<path fill-rule="evenodd" clip-rule="evenodd" d="M26.7808 113.113L26.7799 113.112C15.1523 107.667 10.9196 93.748 16.3047 82.4257L42.2367 27.9013C47.6099 16.6039 61.062 11.0313 72.6531 16.4566L130.739 43.649C142.367 49.0943 146.599 63.0134 141.214 74.3356L115.282 128.86L108.291 125.539L134.223 71.0144C137.916 63.2498 134.886 54.1345 127.455 50.6544L69.3701 23.4627C61.939 19.9846 52.9208 23.458 49.2279 31.2226L23.2959 85.747C19.6029 93.5116 22.6331 102.627 30.0643 106.107L88.1489 133.299C95.58 136.777 104.598 133.303 108.291 125.539L115.282 128.86C109.909 140.157 96.4571 145.73 84.866 140.305L26.7808 113.113Z" fill="white"/>
<path d="M74.4132 88.1002C76.9823 83.5589 75.5402 77.8821 71.1923 75.4208C66.8443 72.9595 61.2369 74.6457 58.6679 79.187C56.0988 83.7283 57.5409 89.4051 61.8888 91.8664C66.2368 94.3277 71.8442 92.6415 74.4132 88.1002Z" fill="white"/>
<path d="M90.4767 95.6201C93.0457 91.0788 91.6037 85.402 87.2557 82.9407C82.9077 80.4794 77.3004 82.1656 74.7313 86.7069C72.1622 91.2483 73.6043 96.925 77.9523 99.3863C82.3002 101.848 87.9076 100.161 90.4767 95.6201Z" fill="white"/>
<path d="M71.7587 85.8491C73.2997 83.1251 72.4344 79.7198 69.826 78.2433C67.2176 76.7667 63.8539 77.778 62.3129 80.502C60.7719 83.226 61.6372 86.6312 64.2455 88.1078C66.8539 89.5844 70.2177 88.5731 71.7587 85.8491Z" fill="black"/>
<path d="M87.9028 93.4048C89.4438 90.6808 88.5785 87.2755 85.9701 85.799C83.3617 84.3224 79.998 85.3337 78.457 88.0577C76.9159 90.7817 77.7812 94.1869 80.3896 95.6635C82.998 97.14 86.3618 96.1288 87.9028 93.4048Z" fill="black"/>
<path d="M74.736 87.4844C76.9759 82.7733 75.1237 77.2363 70.5962 75.1181C66.0707 72.9996 60.5832 75.0997 58.3433 79.8107" fill="#A2528F"/>
<path d="M90.8009 95.0054C93.0409 90.2943 91.1886 84.7574 86.6611 82.6391C82.1356 80.5206 76.6482 82.6207 74.4082 87.3318" fill="#A2528F"/>
<path d="M124.592 49.3148C124.592 49.3148 101.865 93.0979 34.7586 61.6804L48.7162 32.3291C52.9742 22.7597 62.2594 20.0671 70.0909 23.6762L124.592 49.3148Z" fill="#6D2860"/>
<path d="M110.406 42.6737C110.406 42.6737 100.624 92.5147 120.073 101.622L134.033 72.2701C138.77 62.9268 134.962 54.1025 127.175 50.3997L110.404 42.6719L110.406 42.6737Z" fill="#6D2860"/>
<path fill-rule="evenodd" clip-rule="evenodd" d="M75.8645 101.841C76.1003 102.898 75.4348 103.946 74.378 104.182C70.0972 105.136 66.9887 103.781 64.9898 102.116C64.0176 101.306 63.326 100.441 62.8762 99.7803C62.6499 99.4478 62.4806 99.1605 62.3639 98.948C62.3055 98.8416 62.26 98.7534 62.2269 98.6869C62.2103 98.6537 62.1969 98.6258 62.1864 98.6038C62.1811 98.5928 62.1766 98.5832 62.1729 98.5752L62.1678 98.5642L62.1657 98.5596L62.1648 98.5575C62.1643 98.5565 62.1639 98.5556 63.9486 97.744L62.1639 98.5556C61.7156 97.5696 62.1513 96.407 63.1369 95.9588C64.1187 95.5124 65.2758 95.943 65.7279 96.9207C65.7292 96.9233 65.732 96.9291 65.7364 96.9381C65.7477 96.9607 65.7691 97.0026 65.801 97.0608C65.8651 97.1774 65.9699 97.3567 66.1177 97.5739C66.4162 98.0125 66.8725 98.5805 67.4991 99.1025C68.6979 100.101 70.5905 101.008 73.524 100.354C74.5808 100.118 75.6287 100.784 75.8645 101.841Z" fill="#6D2860"/>
</g>
<defs>
<filter id="filter0_d_1_2243" x="-3.20337" y="0.887344" width="164.011" height="163.201" filterUnits="userSpaceOnUse" color-interpolation-filters="sRGB">
<feFlood flood-opacity="0" result="BackgroundImageFix"/>
<feColorMatrix in="SourceAlpha" type="matrix" values="0 0 0 0 0 0 0 0 0 0 0 0 0 0 0 0 0 0 127 0" result="hardAlpha"/>
<feOffset dy="4"/>
<feGaussianBlur stdDeviation="2"/>
<feComposite in2="hardAlpha" operator="out"/>
<feColorMatrix type="matrix" values="0 0 0 0 0 0 0 0 0 0 0 0 0 0 0 0 0 0 0.05 0"/>
<feBlend mode="normal" in2="BackgroundImageFix" result="effect1_dropShadow_1_2243"/>
<feBlend mode="normal" in="SourceGraphic" in2="effect1_dropShadow_1_2243" result="shape"/>
</filter>
</defs>
</svg>
