<svg width="124" height="134" viewBox="0 0 124 134" fill="none" xmlns="http://www.w3.org/2000/svg">
<g filter="url(#filter0_d_1_2287)">
<path fill-rule="evenodd" clip-rule="evenodd" d="M49.9158 26.7903C50.1019 26.2169 49.7876 25.6013 49.2139 25.4153C48.6401 25.2294 48.0242 25.5435 47.8381 26.1169C46.7585 29.4441 47.88 32.6202 50.0749 34.7424C49.8648 35.4304 49.7057 36.1522 49.6028 36.8722C49.393 38.3409 49.4046 39.8924 49.7601 41.2091C49.8762 41.639 50.0286 42.0488 50.2113 42.4394C35.4808 47.7116 25.9816 62.7198 28.2635 78.7866L28.3356 79.2943C30.9495 97.6978 48.0307 110.521 66.4876 107.936C84.9445 105.351 97.7878 88.3366 95.1739 69.9332L95.1018 69.4255C92.488 51.022 75.4068 38.1987 56.9499 40.7837C55.3606 41.0063 53.813 41.3358 52.3133 41.7641C52.1251 41.4063 51.9747 41.0323 51.8689 40.6403C51.6135 39.6946 51.5826 38.4587 51.7651 37.1807C51.8148 36.8326 51.8795 36.4881 51.9572 36.1524C53.8791 37.2475 56.2069 37.6771 58.5205 37.1054C60.1747 36.6966 61.3574 35.6789 61.6034 34.2275C61.8393 32.8356 61.1361 31.4576 59.9672 30.443C58.7798 29.4124 57.2687 28.4165 55.2652 29.0514C53.5415 29.5977 51.9496 30.9123 51.0121 32.5262C49.7759 30.9611 49.237 28.8822 49.9158 26.7903ZM57.9962 34.9862C56.0708 35.4621 54.176 35.0325 52.6768 34.0486C52.7234 33.952 52.7711 33.8581 52.8199 33.7673C53.483 32.5336 54.6969 31.5216 55.9254 31.1323C56.7661 30.8659 57.4587 31.1571 58.535 32.0912C59.3428 32.7924 59.5174 33.4642 59.4498 33.8629C59.3923 34.2022 59.0902 34.7159 57.9962 34.9862Z" fill="#305AB7"/>
<path fill-rule="evenodd" clip-rule="evenodd" d="M54.5998 34.9289C54.8187 34.9907 55.0414 35.0418 55.2674 35.0814C55.3353 35.0933 55.4035 35.1041 55.4719 35.1139C55.6035 35.1328 55.7361 35.1477 55.8695 35.1587C55.9671 35.1667 56.0652 35.1725 56.1636 35.1762C56.5032 35.1888 56.8476 35.1752 57.1948 35.1333C57.3156 35.1187 57.4368 35.1007 57.5583 35.0791C57.704 35.0533 57.85 35.0224 57.9962 34.9862C59.0902 34.7159 59.3923 34.2021 59.4498 33.8629C59.477 33.7024 59.465 33.4977 59.3882 33.2646C59.2742 32.9186 59.0176 32.5101 58.535 32.0912C57.9529 31.586 57.483 31.2688 57.0413 31.1262C56.9228 31.088 56.8064 31.0623 56.6904 31.0489C56.439 31.0199 56.1895 31.0486 55.9254 31.1323C55.6159 31.2304 55.3074 31.368 55.0083 31.5387C54.774 31.6724 54.5455 31.8265 54.3269 31.9978C54.0399 32.2228 53.77 32.4776 53.5267 32.7551C53.5001 32.7854 53.4739 32.816 53.448 32.8468C53.448 32.8468 53.448 32.8468 53.4479 32.8468C53.2432 33.0904 53.0588 33.3504 52.901 33.6222C52.8731 33.6702 52.8461 33.7186 52.8199 33.7673C52.7711 33.8581 52.7234 33.952 52.6768 34.0486C52.7325 34.0852 52.7888 34.121 52.8456 34.156C52.9072 34.194 52.9695 34.2311 53.0324 34.2673C53.4472 34.5057 53.8881 34.703 54.3481 34.8524C54.4314 34.8795 54.5153 34.905 54.5998 34.9289ZM49.5766 40.326C49.5084 39.8761 49.4729 39.4092 49.466 38.9356C49.4559 38.2511 49.5056 37.5528 49.6028 36.8722C49.6607 36.4667 49.7365 36.0606 49.8292 35.6603C49.9011 35.3499 49.9831 35.0429 50.0749 34.7424C49.7957 34.4725 49.5339 34.1855 49.2918 33.8833C48.9693 33.4808 48.6817 33.0513 48.4345 32.5993C48.2978 32.3493 48.1734 32.0924 48.0624 31.8293C47.9567 31.5791 47.8632 31.3234 47.7824 31.0627C47.7325 30.9016 47.6874 30.7386 47.6475 30.5739C47.6319 30.5095 47.617 30.4447 47.603 30.3798C47.4905 29.86 47.4285 29.3237 47.4229 28.7757C47.4141 27.9126 47.545 27.0203 47.8381 26.1169C47.9004 25.9249 48.0109 25.762 48.1518 25.6372C48.4319 25.3892 48.8322 25.2916 49.2139 25.4153C49.5956 25.5391 49.8625 25.853 49.9436 26.2182C49.9752 26.3609 49.9785 26.5113 49.9492 26.6612C49.9408 26.7043 49.9297 26.7474 49.9158 26.7903C49.27 28.7806 49.7264 30.759 50.8369 32.2944C50.8936 32.3728 50.952 32.4501 51.0121 32.5262C51.0886 32.3944 51.1695 32.2647 51.2545 32.1371C51.8309 31.2721 52.5951 30.5106 53.458 29.9324C53.7157 29.7597 53.9821 29.6034 54.255 29.4656C54.3663 29.4094 54.4786 29.3562 54.5919 29.3063C54.6766 29.269 54.7618 29.2334 54.8475 29.1997C54.9857 29.1454 55.125 29.0959 55.2652 29.0514C55.3454 29.026 55.4247 29.0032 55.5033 28.9829C55.6986 28.9325 55.8891 28.8976 56.075 28.8766C56.1492 28.8682 56.2228 28.8621 56.2956 28.858C56.2956 28.858 56.2956 28.858 56.2956 28.858C56.3571 28.8546 56.4182 28.8527 56.4787 28.8523C56.6069 28.8513 56.7328 28.8569 56.8565 28.8685C56.8601 28.8688 56.8637 28.8692 56.8673 28.8695C58.1065 28.989 59.1193 29.7071 59.9672 30.443C60.8463 31.2061 61.462 32.1746 61.6129 33.2C61.6626 33.5381 61.6619 33.8824 61.6034 34.2275C61.3746 35.5773 60.3357 36.552 58.8608 37.0106C58.8557 37.0122 58.8506 37.0138 58.8454 37.0154C58.7393 37.0481 58.6309 37.0781 58.5205 37.1054C58.3015 37.1595 58.0824 37.2047 57.8635 37.2411C57.5995 37.2851 57.3358 37.3164 57.073 37.3356C57.0107 37.3402 56.9485 37.344 56.8864 37.3472C56.7893 37.3522 56.6924 37.3556 56.5957 37.3573C56.5536 37.358 56.5116 37.3585 56.4697 37.3586C55.6979 37.3611 54.9387 37.2608 54.2083 37.0705C53.8097 36.9666 53.4197 36.836 53.0409 36.6808C52.6679 36.5279 52.3059 36.3511 51.9572 36.1524C51.8795 36.488 51.8148 36.8326 51.7651 37.1807C51.6459 38.0153 51.6178 38.8321 51.6837 39.5617C51.7187 39.9492 51.7803 40.3122 51.8689 40.6403C51.9505 40.9424 52.0585 41.2338 52.1898 41.5153C52.2289 41.5991 52.2701 41.682 52.3133 41.7641C52.977 41.5745 53.65 41.4044 54.3319 41.2542C55.1909 41.0651 56.064 40.9077 56.9499 40.7837C57.1057 40.7618 57.2615 40.7411 57.4171 40.7215C58.0695 40.6392 58.72 40.5761 59.3682 40.5317C60.6402 40.4447 61.9029 40.4299 63.1518 40.4841C64.1633 40.5281 65.1658 40.6172 66.1569 40.7499C80.7839 42.7082 92.9313 54.1428 95.1019 69.4255L95.174 69.9332C97.7878 88.3366 84.9445 105.351 66.4876 107.936C48.0307 110.521 30.9495 97.6978 28.3356 79.2943L28.2635 78.7866C26.2893 64.8865 33.133 51.7788 44.5533 45.0823C44.8912 44.8841 45.2332 44.6916 45.579 44.5048C46.7163 43.8906 47.8956 43.3387 49.1133 42.8542C49.3196 42.7721 49.527 42.692 49.7355 42.6138C49.8935 42.5546 50.0521 42.4964 50.2113 42.4394C50.0286 42.0488 49.8762 41.639 49.7601 41.2091C49.7505 41.1736 49.7412 41.1379 49.7321 41.102C49.6969 40.9631 49.6654 40.8218 49.6374 40.6783C49.6148 40.5622 49.5946 40.4447 49.5766 40.326ZM42.2209 38.0761C42.2395 37.5444 42.2787 37.0286 42.333 36.5348C40.2408 32.992 39.4295 28.523 40.9362 23.8799M42.2209 38.0761C27.5451 45.9555 18.6015 62.3568 21.0797 79.8058L21.1518 80.3135C24.3302 102.691 45.0882 118.256 67.4946 115.118C89.9108 111.978 105.538 91.3018 102.358 68.914L102.286 68.4064C99.7353 50.45 85.8657 36.8804 68.908 33.8407C68.9818 29.8883 66.8023 26.771 64.7248 24.9679L63.2926 26.6161L64.7248 24.9679C63.4249 23.8396 60.1991 21.2678 55.6832 21.6219C54.6799 20.2079 53.2288 19.0931 51.4521 18.5173C47.0666 17.0959 42.3584 19.4968 40.9362 23.8799" fill="white"/>
<path d="M95.1739 69.9331L95.1018 69.4254C92.4879 51.0219 75.4067 38.1985 56.9498 40.7835C38.4929 43.3686 25.6496 60.3831 28.2635 78.7865L28.3356 79.2942C30.9494 97.6977 48.0306 110.521 66.4875 107.936C84.9444 105.351 97.7877 88.3365 95.1739 69.9331Z" fill="#97C9FF"/>
<path fill-rule="evenodd" clip-rule="evenodd" d="M67.8132 79.1097C68.4046 79.6802 68.4206 80.6201 67.8489 81.209C65.5336 83.5944 62.996 84.0308 61.0325 83.8092C60.0775 83.7014 59.2776 83.4423 58.7162 83.2114C58.4336 83.0952 58.2062 82.9839 58.0435 82.8981C57.9619 82.8551 57.8962 82.8182 57.8474 82.79C57.823 82.7758 57.8028 82.7638 57.787 82.7542C57.7791 82.7495 57.7722 82.7453 57.7665 82.7417L57.7587 82.7369L57.7554 82.7349L57.754 82.734C57.7533 82.7335 57.7526 82.7331 58.5451 81.477L57.7526 82.7331C57.0562 82.296 56.8466 81.3792 57.2842 80.6855C57.7202 79.9946 58.6339 79.7855 59.3292 80.2157C59.3311 80.2169 59.3353 80.2194 59.3419 80.2232C59.3585 80.2328 59.3896 80.2504 59.4341 80.2739C59.5235 80.3211 59.6649 80.3908 59.8494 80.4667C60.2219 80.6199 60.7487 80.7893 61.3642 80.8588C62.5418 80.9916 64.1208 80.7775 65.7075 79.1429C66.2791 78.554 67.2218 78.5391 67.8132 79.1097Z" fill="#305AB7"/>
<path d="M68.2633 77.1612C71.599 76.6739 73.901 73.5643 73.4051 70.2158C72.9091 66.8672 69.803 64.5478 66.4674 65.0351C63.1317 65.5224 60.8296 68.632 61.3256 71.9805C61.8215 75.3291 64.9276 77.6486 68.2633 77.1612Z" fill="white"/>
<path d="M56.4166 78.8203C59.7523 78.333 62.0543 75.2234 61.5584 71.8749C61.0625 68.5264 57.9563 66.2069 54.6207 66.6942C51.285 67.1815 48.983 70.2911 49.4789 73.6397C49.9748 76.9882 53.081 79.3077 56.4166 78.8203Z" fill="white"/>
<path d="M67.799 74.897C69.8001 74.6047 71.1811 72.7394 70.8836 70.7307C70.5861 68.7221 68.7228 67.3308 66.7217 67.6232C64.7206 67.9155 63.3396 69.7808 63.6371 71.7894C63.9346 73.7981 65.7979 75.1894 67.799 74.897Z" fill="#2B2840"/>
<path d="M55.8911 76.5634C57.8921 76.2711 59.2731 74.4058 58.9757 72.3972C58.6782 70.3885 56.8148 68.9972 54.8138 69.2896C52.8127 69.5819 51.4317 71.4472 51.7292 73.4558C52.0267 75.4645 53.89 76.8558 55.8911 76.5634Z" fill="#2B2840"/>
<path opacity="0.57" d="M82.8414 88.2143C87.4907 87.5458 90.7057 83.2046 90.0225 78.5179C89.3393 73.8312 85.0165 70.5738 80.3672 71.2423C75.718 71.9108 72.5029 76.2521 73.1862 80.9387C73.8694 85.6254 78.1922 88.8828 82.8414 88.2143Z" fill="#52A5FF"/>
<path opacity="0.57" d="M45.6991 93.5539C50.3483 92.8854 53.5634 88.5442 52.8802 83.8575C52.1969 79.1709 47.8741 75.9135 43.2249 76.582C38.5757 77.2505 35.3606 81.5917 36.0438 86.2784C36.727 90.965 41.0498 94.2224 45.6991 93.5539Z" fill="#52A5FF"/>
<path fill-rule="evenodd" clip-rule="evenodd" d="M49.2138 25.4152C49.7876 25.6011 50.1019 26.2167 49.9158 26.7901C49.237 28.8821 49.7759 30.9609 51.0121 32.526C51.9496 30.9121 53.5415 29.5975 55.2652 29.0513C57.2687 28.4164 58.7798 29.4123 59.9672 30.4429C61.1361 31.4575 61.8393 32.8354 61.6034 34.2274C61.3574 35.6787 60.1747 36.6965 58.5205 37.1053C56.2068 37.677 53.8791 37.2473 51.9572 36.1523C51.8795 36.4879 51.8148 36.8325 51.7651 37.1806C51.5826 38.4585 51.6135 39.6945 51.8689 40.6402C52.5377 43.117 54.9819 44.8739 57.5294 46.3513C58.3781 46.8435 59.2463 47.2138 60.0828 47.3154C60.6815 47.3881 61.1079 47.9321 61.0352 48.5305C60.9625 49.1289 60.4181 49.5551 59.8194 49.4824C58.5629 49.3299 57.3981 48.799 56.4331 48.2394C53.9467 46.7975 50.6896 44.6511 49.7601 41.2089C49.4046 39.8922 49.393 38.3408 49.6028 36.8721C49.7057 36.152 49.8648 35.4303 50.0749 34.7422C47.88 32.62 46.7585 29.444 47.8381 26.1167C48.0242 25.5433 48.6401 25.2292 49.2138 25.4152ZM52.6768 34.0485C54.1759 35.0323 56.0708 35.4619 57.9962 34.9861C59.0902 34.7157 59.3923 34.202 59.4498 33.8628C59.5174 33.4641 59.3428 32.7922 58.535 32.0911C57.4587 31.1569 56.7661 30.8657 55.9254 31.1322C54.6969 31.5215 53.483 32.5334 52.8199 33.7672C52.7711 33.858 52.7234 33.9518 52.6768 34.0485Z" fill="#305AB7"/>
</g>
<defs>
<filter id="filter0_d_1_2287" x="-3.95078" y="0.337006" width="131.506" height="140.99" filterUnits="userSpaceOnUse" color-interpolation-filters="sRGB">
<feFlood flood-opacity="0" result="BackgroundImageFix"/>
<feColorMatrix in="SourceAlpha" type="matrix" values="0 0 0 0 0 0 0 0 0 0 0 0 0 0 0 0 0 0 127 0" result="hardAlpha"/>
<feOffset dy="4"/>
<feGaussianBlur stdDeviation="2"/>
<feComposite in2="hardAlpha" operator="out"/>
<feColorMatrix type="matrix" values="0 0 0 0 0 0 0 0 0 0 0 0 0 0 0 0 0 0 0.05 0"/>
<feBlend mode="normal" in2="BackgroundImageFix" result="effect1_dropShadow_1_2287"/>
<feBlend mode="normal" in="SourceGraphic" in2="effect1_dropShadow_1_2287" result="shape"/>
</filter>
</defs>
</svg>
