<svg width="498" height="520" viewBox="0 0 498 520" fill="none" xmlns="http://www.w3.org/2000/svg">
    <g clip-path="url(#clip0_43_2)">
        <g filter="url(#filter0_d_43_2)">
            <ellipse cx="169.531" cy="40.9452" rx="169.531" ry="40.9452"
                transform="matrix(0.956384 -0.292112 0.282108 0.959383 87.3491 382.456)"
                fill="url(#paint0_linear_43_2)" />
        </g>
        <g filter="url(#filter1_i_43_2)">
            <ellipse cx="36.1444" cy="36.9359" rx="36.1444" ry="36.9359"
                transform="matrix(0.1191 -0.992882 0.993483 0.113982 249.764 383.848)"
                fill="url(#paint1_linear_43_2)" />
        </g>
        <g filter="url(#filter2_i_43_2)">
            <ellipse cx="22.0393" cy="22.5219" rx="22.0393" ry="22.5219"
                transform="matrix(0.1191 -0.992882 0.993483 0.113982 85.9841 288.961)"
                fill="url(#paint2_linear_43_2)" />
        </g>
        <g filter="url(#filter3_i_43_2)">
            <ellipse cx="22.0393" cy="22.5219" rx="22.0393" ry="22.5219"
                transform="matrix(0.1191 -0.992882 0.993483 0.113982 98.2676 403.607)"
                fill="url(#paint3_linear_43_2)" />
        </g>
        <g filter="url(#filter4_i_43_2)">
            <ellipse cx="14.1051" cy="14.414" rx="14.1051" ry="14.414"
                transform="matrix(0.1191 -0.992882 0.993483 0.113982 331.653 267.747)"
                fill="url(#paint4_linear_43_2)" />
        </g>
        <path
            d="M357.361 331.737C355.617 331.141 355.923 328.588 357.761 328.403L362.35 327.94C363.014 327.873 363.581 327.429 363.805 326.801L365.382 322.391C365.997 320.668 368.519 320.958 368.711 322.773L369.201 327.42C369.271 328.082 369.717 328.642 370.347 328.857L374.702 330.346C376.446 330.943 376.14 333.495 374.302 333.681L369.713 334.144C369.049 334.21 368.482 334.654 368.258 335.282L366.681 339.692C366.066 341.415 363.544 341.126 363.352 339.31L362.862 334.663C362.792 334.001 362.346 333.441 361.716 333.226L357.361 331.737Z"
            fill="#FFBAFF" />
        <path
            d="M66.652 327.642C64.908 327.046 65.2142 324.494 67.052 324.308L71.6414 323.845C72.3049 323.778 72.8718 323.335 73.0963 322.707L74.6728 318.297C75.2887 316.574 77.8107 316.863 78.0022 318.679L78.4922 323.326C78.562 323.988 79.0085 324.548 79.6382 324.763L83.9935 326.252C85.7375 326.848 85.4313 329.401 83.5935 329.586L79.0041 330.049C78.3406 330.116 77.7737 330.56 77.5492 331.188L75.9727 335.597C75.3568 337.321 72.8348 337.031 72.6433 335.215L72.1533 330.568C72.0835 329.907 71.6369 329.347 71.0073 329.132L66.652 327.642Z"
            fill="#B389F1" />
        <path
            d="M170.379 147.485C168.635 146.889 168.941 144.336 170.779 144.151L175.368 143.688C176.032 143.621 176.599 143.177 176.823 142.549L178.4 138.139C179.016 136.416 181.538 136.706 181.729 138.521L182.219 143.168C182.289 143.83 182.736 144.39 183.365 144.605L187.72 146.094C189.464 146.691 189.158 149.243 187.321 149.429L182.731 149.891C182.068 149.958 181.501 150.402 181.276 151.03L179.7 155.44C179.084 157.163 176.562 156.874 176.37 155.058L175.88 150.411C175.81 149.749 175.364 149.189 174.734 148.974L170.379 147.485Z"
            fill="#F8C050" />
        <path
            d="M170.134 408.606C171.085 407.028 173.515 407.867 173.308 409.702L172.789 414.286C172.714 414.948 173.028 415.596 173.594 415.949L177.571 418.422C179.124 419.389 178.308 421.793 176.493 421.596L171.848 421.091C171.186 421.02 170.544 421.338 170.201 421.907L167.824 425.849C166.872 427.428 164.442 426.588 164.65 424.753L165.168 420.169C165.243 419.507 164.93 418.859 164.363 418.507L160.387 416.033C158.833 415.066 159.649 412.663 161.464 412.86L166.11 413.364C166.771 413.436 167.413 413.118 167.757 412.548L170.134 408.606Z"
            fill="#FFA26B" />
        <path
            d="M233.863 322.264C234.815 320.686 237.245 321.525 237.037 323.361L236.519 327.944C236.444 328.607 236.758 329.255 237.324 329.607L241.3 332.081C242.854 333.047 242.038 335.451 240.223 335.254L235.577 334.75C234.916 334.678 234.274 334.996 233.93 335.566L231.554 339.507C230.602 341.086 228.172 340.247 228.379 338.411L228.898 333.828C228.973 333.165 228.659 332.517 228.093 332.165L224.116 329.691C222.563 328.725 223.379 326.321 225.194 326.518L229.84 327.022C230.501 327.094 231.143 326.776 231.486 326.206L233.863 322.264Z"
            fill="#FF3E68" />
        <ellipse cx="3.52628" cy="3.6035" rx="3.52628" ry="3.6035"
            transform="matrix(0.1191 -0.992882 0.993483 0.113982 311.181 298.603)" fill="#F484FA" />
        <ellipse cx="3.52628" cy="3.6035" rx="3.52628" ry="3.6035"
            transform="matrix(0.945213 0.326454 -0.321579 0.946883 205.676 410.341)" fill="#18F0B8" />
        <ellipse cx="3.52628" cy="3.6035" rx="3.52628" ry="3.6035"
            transform="matrix(0.945213 0.326454 -0.321579 0.946883 342.159 354.383)" fill="#D9DDFF" />
        <mask id="mask0_43_2" style="mask-type:alpha" maskUnits="userSpaceOnUse" x="202" y="51" width="150"
            height="250">
            <path
                d="M321.887 54.039L321.177 54.1556L258.493 72.6873C257.727 72.9123 257.026 73.2897 256.451 73.786C255.877 74.2824 255.446 74.8824 255.197 75.5331L230.006 141.752L204.772 207.978C204.501 208.698 204.462 209.453 204.659 210.164C204.856 210.874 205.282 211.512 205.891 212.01C206.407 212.443 207.047 212.759 207.757 212.931C208.467 213.103 209.228 213.127 209.976 213.001L210.707 212.881L240.161 204.148L262.889 197.36L225.751 293.321C225.374 294.287 225.42 295.311 225.879 296.201C226.339 297.091 227.181 297.785 228.246 298.153C229.312 298.521 230.527 298.536 231.664 298.197C232.8 297.858 233.779 297.187 234.415 296.311L270.14 247.674L348.304 141.258C348.835 140.585 349.136 139.81 349.171 139.026C349.205 138.242 348.972 137.482 348.498 136.836C348.025 136.19 347.331 135.687 346.5 135.385C345.669 135.084 344.736 134.997 343.812 135.136L343.019 135.266L312.61 144.334L290.988 150.798L327.057 59.121C327.264 58.6039 327.351 58.0643 327.313 57.5331C327.274 57.002 327.111 56.4898 326.833 56.026C326.555 55.5621 326.167 55.1557 325.691 54.8301C325.215 54.5045 324.661 54.2661 324.061 54.1285C323.37 53.9751 322.637 53.9553 321.913 54.0704L321.887 54.039Z"
                fill="#FF0074" stroke="#FF0074" stroke-width="4.85258" stroke-linecap="round" stroke-linejoin="round" />
        </mask>
        <g mask="url(#mask0_43_2)">
            <path
                d="M321.887 54.0386L321.177 54.1552L258.493 72.6868C257.727 72.9119 257.026 73.2893 256.451 73.7856C255.877 74.282 255.446 74.882 255.197 75.5327L230.006 141.752L204.772 207.977C204.501 208.698 204.462 209.453 204.659 210.163C204.856 210.873 205.282 211.511 205.891 212.01C206.407 212.443 207.047 212.758 207.757 212.931C208.467 213.103 209.228 213.127 209.976 213L210.707 212.88L240.161 204.148L262.889 197.36L225.751 293.321C225.374 294.286 225.42 295.31 225.879 296.2C226.339 297.091 227.181 297.785 228.246 298.152C229.312 298.52 230.527 298.536 231.664 298.196C232.8 297.857 233.779 297.186 234.415 296.31L270.14 247.674L348.304 141.258C348.835 140.585 349.136 139.81 349.171 139.026C349.205 138.242 348.972 137.481 348.498 136.836C348.025 136.19 347.331 135.686 346.5 135.385C345.669 135.083 344.736 134.997 343.812 135.136L343.019 135.266L312.61 144.334L290.988 150.797L327.057 59.1206C327.264 58.6034 327.351 58.0638 327.313 57.5327C327.274 57.0016 327.111 56.4894 326.833 56.0256C326.555 55.5617 326.167 55.1553 325.691 54.8297C325.215 54.5041 324.661 54.2657 324.061 54.1281C323.37 53.9747 322.637 53.9549 321.913 54.07L321.887 54.0386Z"
                fill="url(#paint5_linear_43_2)" stroke="url(#paint6_linear_43_2)" stroke-width="4.85258"
                stroke-linecap="round" stroke-linejoin="round" />
        </g>
        <path d="M239.495 132.195C241.897 128.591 245.878 127.24 249.141 129.516" stroke="#1B063A"
            stroke-width="3.06376" stroke-linecap="round" />
        <path d="M288.705 128.616C285.516 125.684 281.328 125.316 278.698 128.301" stroke="#1B063A"
            stroke-width="3.06376" stroke-linecap="round" />
        <path
            d="M248.092 241.641C202.928 258.157 130.866 225.644 152.554 307.514C146.381 307.707 133.33 310.829 130.509 321.769"
            stroke="#C3FFFF" stroke-width="5.20102" stroke-linecap="round" stroke-linejoin="round" />
        <path
            d="M290.484 216.856C311.212 245.056 190.613 196.177 189.014 239.698C189.014 239.698 170.763 230.977 166.462 242.019"
            stroke="#C3FFFF" stroke-width="5.20102" stroke-linecap="round" stroke-linejoin="round" />
        <path
            d="M255.847 166.438C253.8 163.026 257.212 160.069 259.942 160.979C261.989 161.661 268.131 162.002 270.178 160.979C273.454 159.341 276.832 163.026 274.272 166.438C271.713 169.85 257.895 169.85 255.847 166.438Z"
            fill="#F484FA" stroke="#1B063A" stroke-width="2.33386" />
        <path
            d="M221.641 195.419C207.55 201.235 177.808 206.358 160.681 194.853C143.397 183.243 150.538 170.8 135.382 167.757"
            stroke="#C3FFFF" stroke-width="5.20102" stroke-linecap="round" />
        <path
            d="M361.241 96.7735C340.203 108.035 363.254 154.022 350.491 170.593C337.612 187.315 309.979 178.813 306.772 180.901"
            stroke="#C3FFFF" stroke-width="5.20102" stroke-linecap="round" />
        <line x1="245.894" y1="148.519" x2="245.894" y2="155.34" stroke="#1B063A" stroke-width="11.3687"
            stroke-linecap="round" />
        <line x1="285.458" y1="148.519" x2="285.458" y2="155.34" stroke="#1B063A" stroke-width="11.3687"
            stroke-linecap="round" />
        <path
            d="M191.931 363.95C192.001 365.857 193.125 368.613 195.021 369.673C196.732 370.629 198.112 371.086 198.112 372.146C198.112 373.205 192.984 375.89 187.717 373.276C182.449 370.662 181.958 367.412 181.606 366.069C187.366 362.607 191.931 363.95 191.931 363.95Z"
            fill="#FF48D8" />
        <path
            d="M198.208 360.608C198.949 357.117 204.12 352.128 204.765 345.269C205.611 336.277 201.064 320.303 178.856 320.303C156.649 320.303 153.371 336.798 153.371 343.682C153.371 352.885 160.139 357.646 159.822 360.925C165.321 365.262 186.153 370.34 198.208 360.608Z"
            fill="#FF48D8" />
        <path
            d="M165.78 363.95C165.71 365.857 164.586 368.613 162.69 369.673C160.979 370.629 159.599 371.086 159.599 372.146C159.599 373.205 164.726 375.89 169.994 373.276C175.262 370.662 175.753 367.412 176.105 366.069C170.345 362.607 165.78 363.95 165.78 363.95Z"
            fill="#FF48D8" />
        <path
            d="M184.824 365.291C184.824 365.291 184.4 369.026 183.765 371.218C183.129 373.41 182.351 377.085 178.538 377.085C174.724 377.085 173.856 372.893 173.593 371.38C173.31 369.756 172.887 364.885 172.887 364.885C172.887 364.885 178.749 359.608 184.824 365.291Z"
            fill="#FF48D8" />
        <path
            d="M198.109 360.583C197.615 364.558 201.637 364.7 201.425 366.972C201.214 369.243 192.818 369.243 190.56 364.771C188.302 360.299 198.109 360.583 198.109 360.583Z"
            fill="#FF48D8" />
        <path
            d="M159.913 360.583C160.407 364.558 156.385 364.7 156.597 366.972C156.809 369.243 165.205 369.243 167.462 364.771C169.72 360.299 159.913 360.583 159.913 360.583Z"
            fill="#FF48D8" />
        <path
            d="M168.994 355.39C172.348 355.39 175.067 352.694 175.067 349.369C175.067 346.044 172.348 343.348 168.994 343.348C165.64 343.348 162.921 346.044 162.921 349.369C162.921 352.694 165.64 355.39 168.994 355.39Z"
            fill="white" />
        <path
            d="M169.409 354.559C171.731 354.559 173.613 352.653 173.613 350.303C173.613 347.952 171.731 346.047 169.409 346.047C167.087 346.047 165.205 347.952 165.205 350.303C165.205 352.653 167.087 354.559 169.409 354.559Z"
            fill="url(#paint7_linear_43_2)" />
        <path
            d="M166.918 349.057C167.462 349.057 167.904 348.616 167.904 348.071C167.904 347.527 167.462 347.085 166.918 347.085C166.373 347.085 165.932 347.527 165.932 348.071C165.932 348.616 166.373 349.057 166.918 349.057Z"
            fill="white" />
        <path
            d="M187.887 354.974C190.954 354.974 193.44 352.464 193.44 349.369C193.44 346.273 190.954 343.763 187.887 343.763C184.82 343.763 182.333 346.273 182.333 349.369C182.333 352.464 184.82 354.974 187.887 354.974Z"
            fill="white" />
        <path
            d="M187.887 354.559C190.209 354.559 192.091 352.653 192.091 350.303C192.091 347.952 190.209 346.047 187.887 346.047C185.565 346.047 183.682 347.952 183.682 350.303C183.682 352.653 185.565 354.559 187.887 354.559Z"
            fill="url(#paint8_linear_43_2)" />
        <path
            d="M185.707 348.85C186.251 348.85 186.693 348.408 186.693 347.863C186.693 347.319 186.251 346.877 185.707 346.877C185.162 346.877 184.721 347.319 184.721 347.863C184.721 348.408 185.162 348.85 185.707 348.85Z"
            fill="white" />
        <path
            d="M193.96 338.218C194.107 338.279 194.228 338.338 194.359 338.404C194.488 338.468 194.616 338.537 194.744 338.611C194.876 338.687 195.005 338.77 195.129 338.86C195.282 338.965 195.418 339.093 195.532 339.239C195.59 339.314 195.621 339.405 195.62 339.499C195.62 339.594 195.588 339.685 195.53 339.759C195.473 339.833 195.392 339.886 195.301 339.909C195.209 339.932 195.113 339.925 195.027 339.887L194.861 339.815C194.828 339.8 194.734 339.751 194.636 339.717C194.536 339.68 194.426 339.645 194.31 339.615C194.195 339.584 194.077 339.556 193.956 339.532C193.839 339.509 193.709 339.484 193.602 339.471C193.509 339.459 193.42 339.428 193.339 339.379C193.259 339.33 193.191 339.264 193.138 339.186C193.086 339.108 193.05 339.02 193.035 338.928C193.019 338.835 193.023 338.74 193.047 338.649C193.071 338.558 193.114 338.474 193.173 338.401C193.232 338.328 193.306 338.269 193.39 338.227C193.474 338.185 193.566 338.161 193.66 338.158C193.754 338.155 193.847 338.171 193.934 338.207L193.96 338.218Z"
            fill="#100030" />
        <path
            d="M163.93 340.178C163.818 340.183 163.683 340.2 163.56 340.216C163.434 340.232 163.309 340.253 163.187 340.277C163.064 340.3 162.946 340.329 162.836 340.362C162.743 340.389 162.652 340.423 162.564 340.464L162.462 340.513C162.395 340.545 162.321 340.553 162.249 340.537C162.177 340.521 162.113 340.481 162.066 340.424C162.018 340.366 161.991 340.294 161.987 340.219C161.984 340.144 162.004 340.07 162.046 340.008C162.15 339.859 162.274 339.725 162.415 339.612C162.535 339.512 162.659 339.418 162.789 339.331C162.914 339.245 163.04 339.165 163.168 339.089C163.298 339.013 163.419 338.942 163.565 338.869L163.604 338.85C163.766 338.77 163.954 338.758 164.124 338.819C164.295 338.88 164.435 339.008 164.514 339.175C164.593 339.342 164.604 339.534 164.544 339.709C164.485 339.884 164.36 340.028 164.198 340.109C164.114 340.15 164.023 340.174 163.93 340.178Z"
            fill="#100030" />
        <path
            d="M176.335 358.858C176.42 358.949 176.52 359.026 176.63 359.085C176.762 359.156 176.9 359.215 177.044 359.26C177.387 359.363 177.745 359.408 178.104 359.391C178.485 359.375 178.862 359.301 179.22 359.17C179.379 359.114 179.533 359.044 179.68 358.961L179.837 358.869C179.887 358.842 179.909 358.831 179.959 358.807L180.64 358.472C180.692 358.446 180.749 358.431 180.808 358.427C180.866 358.423 180.925 358.43 180.98 358.448C181.036 358.467 181.087 358.496 181.131 358.534C181.175 358.572 181.212 358.618 181.238 358.669C181.259 358.713 181.274 358.759 181.28 358.807C181.313 359.041 181.291 359.279 181.214 359.503C181.198 359.556 181.18 359.609 181.158 359.66L181.088 359.802C181.041 359.893 180.987 359.979 180.927 360.062C180.709 360.356 180.437 360.608 180.124 360.804C179.544 361.171 178.875 361.378 178.186 361.405C177.473 361.444 176.764 361.265 176.158 360.891C175.827 360.687 175.547 360.41 175.339 360.083C175.107 359.718 175.019 359.283 175.091 358.858C175.113 358.754 175.163 358.658 175.237 358.58C175.311 358.503 175.405 358.447 175.51 358.419C175.614 358.392 175.724 358.393 175.827 358.424C175.93 358.454 176.023 358.512 176.095 358.592L176.335 358.858Z"
            fill="#100030" />
    </g>
    <defs>
        <filter id="filter0_d_43_2" x="-7.86689" y="221.56" width="537.807" height="339.123"
            filterUnits="userSpaceOnUse" color-interpolation-filters="sRGB">
            <feFlood flood-opacity="0" result="BackgroundImageFix" />
            <feColorMatrix in="SourceAlpha" type="matrix" values="0 0 0 0 0 0 0 0 0 0 0 0 0 0 0 0 0 0 127 0"
                result="hardAlpha" />
            <feOffset dy="18.905" />
            <feGaussianBlur stdDeviation="53.1745" />
            <feColorMatrix type="matrix" values="0 0 0 0 0.299787 0 0 0 0 0.209375 0 0 0 0 0.8375 0 0 0 1 0" />
            <feBlend mode="normal" in2="BackgroundImageFix" result="effect1_dropShadow_43_2" />
            <feBlend mode="normal" in="SourceGraphic" in2="effect1_dropShadow_43_2" result="shape" />
        </filter>
        <filter id="filter1_i_43_2" x="245.005" y="307.226" width="82.7088" height="81.0814"
            filterUnits="userSpaceOnUse" color-interpolation-filters="sRGB">
            <feFlood flood-opacity="0" result="BackgroundImageFix" />
            <feBlend mode="normal" in="SourceGraphic" in2="BackgroundImageFix" result="shape" />
            <feColorMatrix in="SourceAlpha" type="matrix" values="0 0 0 0 0 0 0 0 0 0 0 0 0 0 0 0 0 0 127 0"
                result="hardAlpha" />
            <feOffset dx="-8.808" dy="-8.808" />
            <feGaussianBlur stdDeviation="19.818" />
            <feComposite in2="hardAlpha" operator="arithmetic" k2="-1" k3="1" />
            <feColorMatrix type="matrix" values="0 0 0 0 1 0 0 0 0 0.241667 0 0 0 0 0.406522 0 0 0 1 0" />
            <feBlend mode="normal" in2="shape" result="effect1_innerShadow_43_2" />
        </filter>
        <filter id="filter2_i_43_2" x="81.5788" y="237.3" width="51.9359" height="54.3809" filterUnits="userSpaceOnUse"
            color-interpolation-filters="sRGB">
            <feFlood flood-opacity="0" result="BackgroundImageFix" />
            <feBlend mode="normal" in="SourceGraphic" in2="BackgroundImageFix" result="shape" />
            <feColorMatrix in="SourceAlpha" type="matrix" values="0 0 0 0 0 0 0 0 0 0 0 0 0 0 0 0 0 0 127 0"
                result="hardAlpha" />
            <feOffset dx="-6.87453" dy="-10.3118" />
            <feGaussianBlur stdDeviation="7.73385" />
            <feComposite in2="hardAlpha" operator="arithmetic" k2="-1" k3="1" />
            <feColorMatrix type="matrix" values="0 0 0 0 0 0 0 0 0 0.784314 0 0 0 0 0.972549 0 0 0 1 0" />
            <feBlend mode="normal" in2="shape" result="effect1_innerShadow_43_2" />
        </filter>
        <filter id="filter3_i_43_2" x="93.8623" y="351.945" width="51.9359" height="54.3809"
            filterUnits="userSpaceOnUse" color-interpolation-filters="sRGB">
            <feFlood flood-opacity="0" result="BackgroundImageFix" />
            <feBlend mode="normal" in="SourceGraphic" in2="BackgroundImageFix" result="shape" />
            <feColorMatrix in="SourceAlpha" type="matrix" values="0 0 0 0 0 0 0 0 0 0 0 0 0 0 0 0 0 0 127 0"
                result="hardAlpha" />
            <feOffset dx="-6.87453" dy="-10.3118" />
            <feGaussianBlur stdDeviation="7.73385" />
            <feComposite in2="hardAlpha" operator="arithmetic" k2="-1" k3="1" />
            <feColorMatrix type="matrix" values="0 0 0 0 0 0 0 0 0 0.784314 0 0 0 0 0.972549 0 0 0 1 0" />
            <feBlend mode="normal" in2="shape" result="effect1_innerShadow_43_2" />
        </filter>
        <filter id="filter4_i_43_2" x="329.796" y="237.846" width="32.2766" height="31.6415"
            filterUnits="userSpaceOnUse" color-interpolation-filters="sRGB">
            <feFlood flood-opacity="0" result="BackgroundImageFix" />
            <feBlend mode="normal" in="SourceGraphic" in2="BackgroundImageFix" result="shape" />
            <feColorMatrix in="SourceAlpha" type="matrix" values="0 0 0 0 0 0 0 0 0 0 0 0 0 0 0 0 0 0 127 0"
                result="hardAlpha" />
            <feOffset dx="-3.43727" dy="-3.43727" />
            <feGaussianBlur stdDeviation="7.73385" />
            <feComposite in2="hardAlpha" operator="arithmetic" k2="-1" k3="1" />
            <feColorMatrix type="matrix" values="0 0 0 0 0.941176 0 0 0 0 0.313726 0 0 0 0 0.972549 0 0 0 1 0" />
            <feBlend mode="normal" in2="shape" result="effect1_innerShadow_43_2" />
        </filter>
        <linearGradient id="paint0_linear_43_2" x1="213.878" y1="-2.98009" x2="186.357" y2="110.579"
            gradientUnits="userSpaceOnUse">
            <stop stop-color="#1D0F60" />
            <stop offset="1" stop-color="#5840FF" />
        </linearGradient>
        <linearGradient id="paint1_linear_43_2" x1="36.1444" y1="0" x2="36.1444" y2="73.8718"
            gradientUnits="userSpaceOnUse">
            <stop stop-color="#F8C050" />
            <stop offset="1" stop-color="#B389F1" />
        </linearGradient>
        <linearGradient id="paint2_linear_43_2" x1="22.0393" y1="0" x2="22.0393" y2="45.0438"
            gradientUnits="userSpaceOnUse">
            <stop stop-color="#FF3E68" />
            <stop offset="1" stop-color="#B389F1" />
        </linearGradient>
        <linearGradient id="paint3_linear_43_2" x1="22.0393" y1="0" x2="22.0393" y2="45.0438"
            gradientUnits="userSpaceOnUse">
            <stop stop-color="#5840FF" />
            <stop offset="1" stop-color="#B389F1" />
        </linearGradient>
        <linearGradient id="paint4_linear_43_2" x1="14.1051" y1="0" x2="14.1051" y2="28.828"
            gradientUnits="userSpaceOnUse">
            <stop stop-color="#2D1A83" />
            <stop offset="1" stop-color="#B389F1" />
        </linearGradient>
        <linearGradient id="paint5_linear_43_2" x1="260.36" y1="64.1443" x2="297.047" y2="287.505"
            gradientUnits="userSpaceOnUse">
            <stop stop-color="#8BFFD5" />
            <stop offset="1" stop-color="#7D8AFF" />
        </linearGradient>
        <linearGradient id="paint6_linear_43_2" x1="260.36" y1="64.1443" x2="297.047" y2="287.505"
            gradientUnits="userSpaceOnUse">
            <stop stop-color="#8BFFD5" />
            <stop offset="1" stop-color="#7D8AFF" />
        </linearGradient>
        <linearGradient id="paint7_linear_43_2" x1="173.385" y1="350.303" x2="165.084" y2="350.303"
            gradientUnits="userSpaceOnUse">
            <stop />
            <stop offset="0.4481" stop-color="#100030" />
            <stop offset="0.8399" stop-color="#180070" />
            <stop offset="1" />
        </linearGradient>
        <linearGradient id="paint8_linear_43_2" x1="183.706" y1="350.303" x2="191.874" y2="350.303"
            gradientUnits="userSpaceOnUse">
            <stop />
            <stop offset="0.4481" stop-color="#100030" />
            <stop offset="0.8399" stop-color="#180070" />
            <stop offset="1" />
        </linearGradient>
        <clipPath id="clip0_43_2">
            <rect width="498" height="519.574" fill="white" />
        </clipPath>
    </defs>
</svg>